<svg viewBox="0 0 2200 873" xmlns="http://www.w3.org/2000/svg" xml:space="preserve" style="fill-rule:evenodd;clip-rule:evenodd;stroke-linejoin:round;stroke-miterlimit:2">
  <path d="M2200 0v536.25H0V0h2200Zm-391.581 440.143h68.778V330.097h82.534v110.046h68.779V316.341h-13.756v-13.755h-13.755V288.83h13.755v-13.756h13.756V151.273h-13.756v-27.512h-13.755v-13.755h-27.512V96.25h-165.068v343.893Zm137.557-275.114v13.755h13.755v68.779h-13.755v13.755h-68.779v-96.289h68.779ZM542.896 385.12h13.756v27.511h13.755v13.756h27.512v13.756H721.72v-13.756h27.512v-13.756h13.755V385.12h13.756V247.563H652.942v68.778h55.022v41.267h-13.755v13.756H625.43v-13.756h-13.755V178.784h13.755v-13.755h68.779v13.755h13.755v27.512h68.779v-55.023h-13.756v-27.512h-13.755v-13.755H721.72V96.25H597.919v13.756h-27.512v13.755h-13.755v27.512h-13.756V385.12Zm-371.404-27.512h41.267v27.512h-13.756v55.023h68.779V385.12h13.756v-27.512h55.022v27.512h-13.755v55.023h68.778V385.12h13.756v-27.512h55.023v-41.267h-41.267v-41.267h13.755v-41.267h55.023V192.54h-41.267v-27.511h13.756v-55.023h-68.779v55.023h-13.755v27.511h-55.023v-27.511h13.755v-55.023h-68.778v55.023h-13.756v27.511h-55.023v41.267h41.268v41.267h-13.756v41.267h-55.023v41.267Zm110.046-110.045h13.755v.006h-13.755v-.006Zm82.534-13.756v41.267h-13.756v41.267h-55.023V288.83h13.756v-55.023h55.023Zm-96.29 55.018h13.756v.005h-13.756v-.005Zm563.984 151.318h68.778V206.296H914.3v13.755h13.756v13.756h13.755v13.756h13.756v13.755h13.756v13.756h13.756v13.756h27.511v-13.756h13.756v-13.756h13.755v-13.755h13.756v-13.756h13.756v-13.756h13.755v-13.755h13.756v233.847h68.779V96.25h-68.779v13.756h-13.756v13.755h-13.755v13.756h-13.756v13.756h-13.756v13.756h-13.755v13.755h-13.756v13.756h-27.511v-13.756h-13.756v-13.755h-13.756v-13.756h-13.756v-13.756h-13.755v-13.756H914.3v-13.755h-13.756V96.25h-68.778v343.893Zm701.541 0h165.068v-13.756h27.511v-13.756h13.756V385.12h13.756V151.273h-13.756v-27.512h-13.756v-13.755h-27.511V96.25h-165.068v343.893Zm137.557-275.114v13.755h13.755v178.824h-13.755v13.756h-68.779V165.029h68.779Zm-453.939 275.114h68.779V233.807h13.756v27.511h13.755v27.512h13.756v27.511h13.756v27.512h13.756v27.511h13.755v27.511h13.756v27.512h13.756v13.756h82.534V96.25h-68.779v206.336h-13.755v-27.512h-13.756v-27.511h-13.756v-27.512h-13.755V192.54h-13.756v-27.511h-13.756v-27.512h-13.756v-27.511h-13.755V96.25h-82.535v343.893Zm492.838 304.064v-9.17h9.169v9.17h-9.169Zm-9.17 0v-9.17h9.17v9.17h-9.17Zm-9.17 0v-9.17h9.17v9.17h-9.17Zm-9.17 0v-9.17h9.17v9.17h-9.17Zm-9.169-9.17v-9.17h9.169v9.17h-9.169Zm9.169 0v-9.17h9.17v9.17h-9.17Zm9.17 0v-9.17h9.17v9.17h-9.17Zm9.17 0v-9.17h9.17v9.17h-9.17Zm9.17 0v-9.17h9.169v9.17h-9.169Zm0-9.17v-9.169h9.169v9.169h-9.169Zm-9.17 0v-9.169h9.17v9.169h-9.17Zm-9.17 0v-9.169h9.17v9.169h-9.17Zm-9.17 0v-9.169h9.17v9.169h-9.17Zm-9.169 0v-9.169h9.169v9.169h-9.169Zm18.339-9.169v-9.17h9.17v9.17h-9.17Zm9.17 0v-9.17h9.17v9.17h-9.17Zm-18.34 0v-9.17h9.17v9.17h-9.17Zm0-9.17v-9.17h9.17v9.17h-9.17Zm-9.169 0v-9.17h9.169v9.17h-9.169Zm0 9.17v-9.17h9.169v9.17h-9.169Zm-9.17 0v-9.17h9.17v9.17h-9.17Zm0-9.17v-9.17h9.17v9.17h-9.17Zm0 18.339v-9.169h9.17v9.169h-9.17Zm-9.17 0v-9.169h9.17v9.169h-9.17Zm0 9.17v-9.17h9.17v9.17h-9.17Zm9.17 0v-9.17h9.17v9.17h-9.17Zm-18.34 0v-9.17h9.17v9.17h-9.17Zm0-9.17v-9.169h9.17v9.169h-9.17Zm0-9.169v-9.17h9.17v9.17h-9.17Zm0-9.17v-9.17h9.17v9.17h-9.17Zm9.17 0v-9.17h9.17v9.17h-9.17Zm0 9.17v-9.17h9.17v9.17h-9.17Zm-18.339-9.17v-9.17h9.169v9.17h-9.169Zm-9.17 0v-9.17h9.17v9.17h-9.17Zm-9.17 0v-9.17h9.17v9.17h-9.17Zm0 9.17v-9.17h9.17v9.17h-9.17Zm0 9.169v-9.169h9.17v9.169h-9.17Zm0 9.17v-9.17h9.17v9.17h-9.17Zm9.17 0v-9.17h9.17v9.17h-9.17Zm9.17 0v-9.17h9.169v9.17h-9.169Zm0-9.17v-9.169h9.169v9.169h-9.169Zm0-9.169v-9.17h9.169v9.17h-9.169Zm-9.17 0v-9.17h9.17v9.17h-9.17Zm0 9.169v-9.169h9.17v9.169h-9.17Zm-18.34 0v-9.169h9.17v9.169h-9.17Zm0-9.169v-9.17h9.17v9.17h-9.17Zm-9.169 0v-9.17h9.169v9.17h-9.169Zm0 9.169v-9.169h9.169v9.169h-9.169Zm-9.17 0v-9.169h9.17v9.169h-9.17Zm0 9.17v-9.17h9.17v9.17h-9.17Zm0 9.17v-9.17h9.17v9.17h-9.17Zm9.17 0v-9.17h9.169v9.17h-9.169Zm0-9.17v-9.17h9.169v9.17h-9.169Zm9.169 0v-9.17h9.17v9.17h-9.17Zm0 9.17v-9.17h9.17v9.17h-9.17Zm9.17 0v-9.17h9.17v9.17h-9.17Zm9.17 0v-9.17h9.17v9.17h-9.17Zm-45.849 0v-9.17h9.17v9.17h-9.17Zm0 9.17v-9.17h9.17v9.17h-9.17Zm0 9.169v-9.169h9.17v9.169h-9.17Zm0 64.189v-9.17h9.17v9.17h-9.17Zm9.17 0v-9.17h9.17v9.17h-9.17Zm0 9.169v-9.169h9.17v9.169h-9.17Zm-9.17 0v-9.169h9.17v9.169h-9.17Zm18.34 0v-9.169h9.169v9.169h-9.169Zm9.169 0v-9.169h9.17v9.169h-9.17Zm9.17 0v-9.169h9.17v9.169h-9.17Zm9.17 0v-9.169h9.17v9.169h-9.17Zm-9.17-9.169v-9.17h9.17v9.17h-9.17Zm0-64.189v-9.169h9.17v9.169h-9.17Zm0-9.169v-9.17h9.17v9.17h-9.17Zm-9.17 0v-9.17h9.17v9.17h-9.17Zm-9.169 0v-9.17h9.169v9.17h-9.169Zm-9.17 0v-9.17h9.17v9.17h-9.17Zm0 9.169v-9.169h9.17v9.169h-9.17Zm9.17 64.189v-9.17h9.169v9.17h-9.169Zm9.169 0v-9.17h9.17v9.17h-9.17Zm-9.169-64.189v-9.169h9.169v9.169h-9.169Zm9.169 0v-9.169h9.17v9.169h-9.17Zm73.358 55.019v-9.17h9.17v9.17h-9.17Zm0 9.17v-9.17h9.17v9.17h-9.17Zm9.17 0v-9.17h9.17v9.17h-9.17Zm9.17 0v-9.17h9.17v9.17h-9.17Zm9.17 0v-9.17h9.169v9.17h-9.169Zm9.169 0v-9.17h9.17v9.17h-9.17Zm0-9.17v-9.17h9.17v9.17h-9.17Zm-9.169 0v-9.17h9.169v9.17h-9.169Zm-9.17 0v-9.17h9.17v9.17h-9.17Zm-9.17 0v-9.17h9.17v9.17h-9.17Zm27.509 18.339v-9.169h9.17v9.169h-9.17Zm-9.169 0v-9.169h9.169v9.169h-9.169Zm-9.17 0v-9.169h9.17v9.169h-9.17Zm-9.17 0v-9.169h9.17v9.169h-9.17Zm-9.17 0v-9.169h9.17v9.169h-9.17Zm-9.169 0v-9.169h9.169v9.169h-9.169Zm0 9.17v-9.17h9.169v9.17h-9.169Zm9.169 0v-9.17h9.17v9.17h-9.17Zm9.17 0v-9.17h9.17v9.17h-9.17Zm9.17 0v-9.17h9.17v9.17h-9.17Zm0 9.17v-9.17h9.17v9.17h-9.17Zm9.17 0v-9.17h9.169v9.17h-9.169Zm0-9.17v-9.17h9.169v9.17h-9.169Zm-9.17 18.34v-9.17h9.17v9.17h-9.17Zm-9.17 0v-9.17h9.17v9.17h-9.17Zm0-9.17v-9.17h9.17v9.17h-9.17Zm-9.17 0v-9.17h9.17v9.17h-9.17Zm0 9.17v-9.17h9.17v9.17h-9.17Zm0 9.169v-9.169h9.17v9.169h-9.17Zm-9.169 0v-9.169h9.169v9.169h-9.169Zm-9.17 0v-9.169h9.17v9.169h-9.17Zm-9.17 0v-9.169h9.17v9.169h-9.17Zm-9.17 0v-9.169h9.17v9.169h-9.17Zm-9.169 0v-9.169h9.169v9.169h-9.169Zm-9.17 0v-9.169h9.17v9.169h-9.17Zm-9.17 0v-9.169h9.17v9.169h-9.17Zm9.17-9.169v-9.17h9.17v9.17h-9.17Zm9.17 0v-9.17h9.169v9.17h-9.169Zm9.169 0v-9.17h9.17v9.17h-9.17Zm9.17 0v-9.17h9.17v9.17h-9.17Zm9.17 0v-9.17h9.17v9.17h-9.17Zm9.17 0v-9.17h9.169v9.17h-9.169Zm0-9.17v-9.17h9.169v9.17h-9.169Zm-9.17 0v-9.17h9.17v9.17h-9.17Zm-9.17 0v-9.17h9.17v9.17h-9.17Zm-9.17 0v-9.17h9.17v9.17h-9.17Zm-9.169 0v-9.17h9.169v9.17h-9.169Zm-9.17 0v-9.17h9.17v9.17h-9.17Zm-9.17 9.17v-9.17h9.17v9.17h-9.17Zm-9.17 0v-9.17h9.17v9.17h-9.17Zm-9.169 0v-9.17h9.169v9.17h-9.169Zm0-9.17v-9.17h9.169v9.17h-9.169Zm-9.17 0v-9.17h9.17v9.17h-9.17Zm0-9.17v-9.17h9.17v9.17h-9.17Zm9.17 0v-9.17h9.169v9.17h-9.169Zm9.169 0v-9.17h9.17v9.17h-9.17Zm9.17 0v-9.17h9.17v9.17h-9.17Zm9.17 0v-9.17h9.17v9.17h-9.17Zm9.17 0v-9.17h9.169v9.17h-9.169Zm9.169 0v-9.17h9.17v9.17h-9.17Zm9.17 0v-9.17h9.17v9.17h-9.17Zm9.17 0v-9.17h9.17v9.17h-9.17Zm-45.849 9.17v-9.17h9.17v9.17h-9.17Zm-9.17 0v-9.17h9.17v9.17h-9.17Zm91.698-55.019v-9.169h9.17v9.169h-9.17Zm18.339 9.17v-9.17h9.17v9.17h-9.17Zm-9.169 0v-9.17h9.169v9.17h-9.169Zm-9.17 0v-9.17h9.17v9.17h-9.17Zm-9.17 0v-9.17h9.17v9.17h-9.17Zm0-9.17v-9.169h9.17v9.169h-9.17Zm-9.17 0v-9.169h9.17v9.169h-9.17Zm0 9.17v-9.17h9.17v9.17h-9.17Zm-55.018-45.849v-9.169h9.17v9.169h-9.17Zm-36.679 9.17v-9.17h9.17v9.17h-9.17Zm0 9.17v-9.17h9.17v9.17h-9.17Zm9.17 0v-9.17h9.169v9.17h-9.169Zm0 9.17v-9.17h9.169v9.17h-9.169Zm9.169 0v-9.17h9.17v9.17h-9.17Zm9.17 9.169v-9.169h9.17v9.169h-9.17Zm0-9.169v-9.17h9.17v9.17h-9.17Zm0-9.17v-9.17h9.17v9.17h-9.17Zm0-9.17v-9.17h9.17v9.17h-9.17Zm-9.17 0v-9.17h9.17v9.17h-9.17Zm0 9.17v-9.17h9.17v9.17h-9.17Zm-9.169-9.17v-9.17h9.169v9.17h-9.169Zm27.509 27.509v-9.169h9.17v9.169h-9.17Zm9.17 0v-9.169h9.169v9.169h-9.169Zm9.169 0v-9.169h9.17v9.169h-9.17Zm9.17 0v-9.169h9.17v9.169h-9.17Zm0-9.169v-9.17h9.17v9.17h-9.17Zm-9.17 0v-9.17h9.17v9.17h-9.17Zm-9.169 0v-9.17h9.169v9.17h-9.169Zm-9.17 0v-9.17h9.17v9.17h-9.17Zm0-9.17v-9.17h9.17v9.17h-9.17Zm0-9.17v-9.17h9.17v9.17h-9.17Zm9.17 0v-9.17h9.169v9.17h-9.169Zm9.169 0v-9.17h9.17v9.17h-9.17Zm9.17 0v-9.17h9.17v9.17h-9.17Zm0 9.17v-9.17h9.17v9.17h-9.17Zm-9.17 0v-9.17h9.17v9.17h-9.17Zm-9.169 0v-9.17h9.169v9.17h-9.169Zm27.509-9.17v-9.17h9.17v9.17h-9.17Zm9.17 0v-9.17h9.169v9.17h-9.169Zm0 9.17v-9.17h9.169v9.17h-9.169Zm0 9.17v-9.17h9.169v9.17h-9.169Zm0 9.169v-9.169h9.169v9.169h-9.169Zm-9.17 0v-9.169h9.17v9.169h-9.17Zm0-9.169v-9.17h9.17v9.17h-9.17Zm0-9.17v-9.17h9.17v9.17h-9.17Zm9.17 27.509v-9.17h9.169v9.17h-9.169Zm9.169-36.679v-9.17h9.17v9.17h-9.17Zm27.51 27.509v-9.169h9.169v9.169h-9.169Zm0-9.169v-9.17h9.169v9.17h-9.169Zm-9.17-9.17v-9.17h9.17v9.17h-9.17Zm-9.17 0v-9.17h9.17v9.17h-9.17Zm-9.17 0v-9.17h9.17v9.17h-9.17Zm0 9.17v-9.17h9.17v9.17h-9.17Zm9.17 0v-9.17h9.17v9.17h-9.17Zm9.17 0v-9.17h9.17v9.17h-9.17Zm-27.509-45.849v-9.17h9.169v9.17h-9.169Zm-155.886-73.358v-9.17h9.17v9.17h-9.17Zm0 9.17v-9.17h9.17v9.17h-9.17Zm0 9.169v-9.169h9.17v9.169h-9.17Zm0 9.17v-9.17h9.17v9.17h-9.17Zm0 9.17v-9.17h9.17v9.17h-9.17Zm0 9.17v-9.17h9.17v9.17h-9.17Zm0 9.169v-9.169h9.17v9.169h-9.17Zm0 9.17v-9.17h9.17v9.17h-9.17Zm9.17 0v-9.17h9.169v9.17h-9.169Zm9.169 0v-9.17h9.17v9.17h-9.17Zm9.17 0v-9.17h9.17v9.17h-9.17Zm9.17 0v-9.17h9.17v9.17h-9.17Zm-36.679 18.34v-9.17h9.17v9.17h-9.17Zm-9.17 0v-9.17h9.17v9.17h-9.17Zm0-9.17v-9.17h9.17v9.17h-9.17Zm9.17 0v-9.17h9.17v9.17h-9.17Zm0 18.339v-9.169h9.17v9.169h-9.17Zm-9.17 0v-9.169h9.17v9.169h-9.17Zm-9.17 0v-9.169h9.17v9.169h-9.17Zm-9.169 0v-9.169h9.169v9.169h-9.169Zm-9.17 0v-9.169h9.17v9.169h-9.17Zm-18.34-27.509v-9.17h9.17v9.17h-9.17Zm9.17 0v-9.17h9.17v9.17h-9.17Zm9.17 0v-9.17h9.17v9.17h-9.17Zm9.17 0v-9.17h9.169v9.17h-9.169Zm9.169 0v-9.17h9.17v9.17h-9.17Zm9.17 0v-9.17h9.17v9.17h-9.17Zm-9.17 18.34v-9.17h9.17v9.17h-9.17Zm0-9.17v-9.17h9.17v9.17h-9.17Zm-9.169 0v-9.17h9.169v9.17h-9.169Zm-9.17 0v-9.17h9.17v9.17h-9.17Zm0 9.17v-9.17h9.17v9.17h-9.17Zm9.17 0v-9.17h9.169v9.17h-9.169Zm18.339-73.358v-9.17h9.17v9.17h-9.17Zm0 9.169v-9.169h9.17v9.169h-9.17Zm-9.17 0v-9.169h9.17v9.169h-9.17Zm0 9.17v-9.17h9.17v9.17h-9.17Zm0 9.17v-9.17h9.17v9.17h-9.17Zm-9.169-9.17v-9.17h9.169v9.17h-9.169Zm0 9.17v-9.17h9.169v9.17h-9.169Zm-9.17 0v-9.17h9.17v9.17h-9.17Zm0 9.17v-9.17h9.17v9.17h-9.17Zm0 9.169v-9.169h9.17v9.169h-9.17Zm18.339 0v-9.169h9.17v9.169h-9.17Zm9.17 0v-9.169h9.17v9.169h-9.17Zm0-9.169v-9.17h9.17v9.17h-9.17Zm0-9.17v-9.17h9.17v9.17h-9.17Zm0-9.17v-9.17h9.17v9.17h-9.17Zm-9.17 18.34v-9.17h9.17v9.17h-9.17Zm-9.169 9.169v-9.169h9.169v9.169h-9.169Zm0-9.169v-9.17h9.169v9.17h-9.169Zm64.188 128.376v-9.17h9.17v9.17h-9.17Zm0 9.17v-9.17h9.17v9.17h-9.17Zm0 18.339v-9.169h9.17v9.169h-9.17Zm-9.17 0v-9.169h9.17v9.169h-9.17Zm-9.17 0v-9.169h9.17v9.169h-9.17Zm-9.169 0v-9.169h9.169v9.169h-9.169Zm-9.17 0v-9.169h9.17v9.169h-9.17Zm0-9.169v-9.17h9.17v9.17h-9.17Zm-9.17 0v-9.17h9.17v9.17h-9.17Zm-9.17 0v-9.17h9.17v9.17h-9.17Zm0-9.17v-9.17h9.17v9.17h-9.17Zm-9.169 0v-9.17h9.169v9.17h-9.169Zm0-9.17v-9.17h9.169v9.17h-9.169Zm0-9.17v-9.169h9.169v9.169h-9.169Zm-9.17 0v-9.169h9.17v9.169h-9.17Zm0-9.169v-9.17h9.17v9.17h-9.17Zm0-9.17v-9.17h9.17v9.17h-9.17Zm0-9.17v-9.17h9.17v9.17h-9.17Zm0-9.17v-9.169h9.17v9.169h-9.17Zm0-9.169v-9.17h9.17v9.17h-9.17Zm0-9.17v-9.17h9.17v9.17h-9.17Zm0-9.17v-9.17h9.17v9.17h-9.17Zm9.17 0v-9.17h9.169v9.17h-9.169Zm9.169 0v-9.17h9.17v9.17h-9.17Zm9.17 0v-9.17h9.17v9.17h-9.17Zm9.17 0v-9.17h9.17v9.17h-9.17Zm0 9.17v-9.17h9.17v9.17h-9.17Zm0 9.17v-9.17h9.17v9.17h-9.17Zm0 9.169v-9.169h9.17v9.169h-9.17Zm0 9.17v-9.17h9.17v9.17h-9.17Zm0 9.17v-9.17h9.17v9.17h-9.17Zm0 9.17v-9.17h9.17v9.17h-9.17Zm0 9.169v-9.169h9.17v9.169h-9.17Zm9.17 0v-9.169h9.169v9.169h-9.169Zm0 9.17v-9.17h9.169v9.17h-9.169Zm9.169 0v-9.17h9.17v9.17h-9.17Zm0 9.17v-9.17h9.17v9.17h-9.17Zm9.17 0v-9.17h9.17v9.17h-9.17Zm0-9.17v-9.17h9.17v9.17h-9.17Zm9.17 18.34v-9.17h9.17v9.17h-9.17Zm-9.17 0v-9.17h9.17v9.17h-9.17Zm-9.17 0v-9.17h9.17v9.17h-9.17Zm-9.169 0v-9.17h9.169v9.17h-9.169Zm0-9.17v-9.17h9.169v9.17h-9.169Zm-9.17 0v-9.17h9.17v9.17h-9.17Zm0-9.17v-9.17h9.17v9.17h-9.17Zm-9.17 0v-9.17h9.17v9.17h-9.17Zm0 9.17v-9.17h9.17v9.17h-9.17Zm-9.17-9.17v-9.17h9.17v9.17h-9.17Zm9.17-9.17v-9.169h9.17v9.169h-9.17Zm0-9.169v-9.17h9.17v9.17h-9.17Zm-9.17 9.169v-9.169h9.17v9.169h-9.17Zm0-9.169v-9.17h9.17v9.17h-9.17Zm9.17-9.17v-9.17h9.17v9.17h-9.17Zm0-9.17v-9.17h9.17v9.17h-9.17Zm0-9.17v-9.169h9.17v9.169h-9.17Zm0-9.169v-9.17h9.17v9.17h-9.17Zm0-9.17v-9.17h9.17v9.17h-9.17Zm-9.17 0v-9.17h9.17v9.17h-9.17Zm-9.169 0v-9.17h9.169v9.17h-9.169Zm0 9.17v-9.17h9.169v9.17h-9.169Zm0 9.169v-9.169h9.169v9.169h-9.169Zm0 9.17v-9.17h9.169v9.17h-9.169Zm0 9.17v-9.17h9.169v9.17h-9.169Zm0 9.17v-9.17h9.169v9.17h-9.169Zm9.169-9.17v-9.17h9.17v9.17h-9.17Zm0-9.17v-9.17h9.17v9.17h-9.17Zm0-9.17v-9.169h9.17v9.169h-9.17Zm0-9.169v-9.17h9.17v9.17h-9.17Zm55.019-73.358v-9.17h9.17v9.17h-9.17Zm-9.17 0v-9.17h9.17v9.17h-9.17Zm0 9.169v-9.169h9.17v9.169h-9.17Zm9.17 0v-9.169h9.17v9.169h-9.17Zm-18.34 0v-9.169h9.17v9.169h-9.17Zm-9.169 0v-9.169h9.169v9.169h-9.169Zm0-9.169v-9.17h9.169v9.17h-9.169Zm9.169 0v-9.17h9.17v9.17h-9.17Zm-55.018-18.34v-9.17h9.17v9.17h-9.17Zm9.17-9.17v-9.169h9.169v9.169h-9.169Zm9.169-9.169v-9.17h9.17v9.17h-9.17Zm9.17-9.17v-9.17h9.17v9.17h-9.17Zm-36.679 45.849v-9.17h9.17v9.17h-9.17Zm0 9.169v-9.169h9.17v9.169h-9.17Zm-9.17 0v-9.169h9.17v9.169h-9.17Zm0-9.169v-9.17h9.17v9.17h-9.17Zm55.019-55.019v-9.17h9.17v9.17h-9.17Zm-55.019 82.528v-9.17h9.17v9.17h-9.17Zm9.17 0v-9.17h9.17v9.17h-9.17Zm55.019 0v-9.17h9.169v9.17h-9.169Zm9.169 0v-9.17h9.17v9.17h-9.17Zm9.17 0v-9.17h9.17v9.17h-9.17Zm9.17 0v-9.17h9.17v9.17h-9.17Zm-155.886 128.376v-9.169h9.17v9.169h-9.17Zm0-9.169v-9.17h9.17v9.17h-9.17Zm0-9.17v-9.17h9.17v9.17h-9.17Zm0-9.17v-9.17h9.17v9.17h-9.17Zm0-9.17v-9.169h9.17v9.169h-9.17Zm0-9.169v-9.17h9.17v9.17h-9.17Zm0-9.17v-9.17h9.17v9.17h-9.17Zm0-9.17v-9.17h9.17v9.17h-9.17Zm0-9.17v-9.169h9.17v9.169h-9.17Zm0-9.169v-9.17h9.17v9.17h-9.17Zm0-9.17v-9.17h9.17v9.17h-9.17Zm0-9.17v-9.17h9.17v9.17h-9.17Zm0-9.17v-9.169h9.17v9.169h-9.17Zm0-9.169v-9.17h9.17v9.17h-9.17Zm0-9.17v-9.17h9.17v9.17h-9.17Zm9.17 0v-9.17h9.17v9.17h-9.17Zm0 9.17v-9.17h9.17v9.17h-9.17Zm0 9.169v-9.169h9.17v9.169h-9.17Zm0 9.17v-9.17h9.17v9.17h-9.17Zm0 9.17v-9.17h9.17v9.17h-9.17Zm0 9.17v-9.17h9.17v9.17h-9.17Zm0 9.169v-9.169h9.17v9.169h-9.17Zm9.17 9.17v-9.17h9.169v9.17h-9.169Zm0 9.17v-9.17h9.169v9.17h-9.169Zm0 9.17v-9.17h9.169v9.17h-9.169Zm0 9.169v-9.169h9.169v9.169h-9.169Zm0 9.17v-9.17h9.169v9.17h-9.169Zm0 9.17v-9.17h9.169v9.17h-9.169Zm0 9.17v-9.17h9.169v9.17h-9.169Zm0 9.169v-9.169h9.169v9.169h-9.169Zm9.169 0v-9.169h9.17v9.169h-9.17Zm9.17 0v-9.169h9.17v9.169h-9.17Zm0-9.169v-9.17h9.17v9.17h-9.17Zm0-9.17v-9.17h9.17v9.17h-9.17Zm0-9.17v-9.17h9.17v9.17h-9.17Zm0-9.17v-9.169h9.17v9.169h-9.17Zm0-9.169v-9.17h9.17v9.17h-9.17Zm0-9.17v-9.17h9.17v9.17h-9.17Zm0-9.17v-9.17h9.17v9.17h-9.17Zm-9.17 0v-9.17h9.17v9.17h-9.17Zm0-9.17v-9.169h9.17v9.169h-9.17Zm0 18.34v-9.17h9.17v9.17h-9.17Zm0 9.17v-9.17h9.17v9.17h-9.17Zm0 9.169v-9.169h9.17v9.169h-9.17Zm0 9.17v-9.17h9.17v9.17h-9.17Zm0 9.17v-9.17h9.17v9.17h-9.17Zm0 9.17v-9.17h9.17v9.17h-9.17Zm-18.339 9.169v-9.169h9.17v9.169h-9.17Zm0-9.169v-9.17h9.17v9.17h-9.17Zm0-9.17v-9.17h9.17v9.17h-9.17Zm0-9.17v-9.17h9.17v9.17h-9.17Zm0-9.17v-9.169h9.17v9.169h-9.17Zm0-9.169v-9.17h9.17v9.17h-9.17Zm0-9.17v-9.17h9.17v9.17h-9.17Zm0-9.17v-9.17h9.17v9.17h-9.17Zm-9.17-82.528v-9.169h9.17v9.169h-9.17Zm0 9.17v-9.17h9.17v9.17h-9.17Zm27.509-9.17v-9.169h9.17v9.169h-9.17Zm0 9.17v-9.17h9.17v9.17h-9.17Zm0 9.17v-9.17h9.17v9.17h-9.17Zm0 9.17v-9.17h9.17v9.17h-9.17Zm0 9.169v-9.169h9.17v9.169h-9.17Zm0 9.17v-9.17h9.17v9.17h-9.17Zm9.17 9.17v-9.17h9.17v9.17h-9.17Zm0 9.17v-9.17h9.17v9.17h-9.17Zm0 9.169v-9.169h9.17v9.169h-9.17Zm0-27.509v-9.17h9.17v9.17h-9.17Zm0-9.17v-9.169h9.17v9.169h-9.17Zm0-9.169v-9.17h9.17v9.17h-9.17Zm0-9.17v-9.17h9.17v9.17h-9.17Zm0-9.17v-9.17h9.17v9.17h-9.17Zm0-9.17v-9.169h9.17v9.169h-9.17Zm-27.509 0v-9.169h9.17v9.169h-9.17Zm0 9.17v-9.17h9.17v9.17h-9.17Zm9.17-9.17v-9.169h9.169v9.169h-9.169Zm0 9.17v-9.17h9.169v9.17h-9.169Zm0 9.17v-9.17h9.169v9.17h-9.169Zm0 9.17v-9.17h9.169v9.17h-9.169Zm0 9.169v-9.169h9.169v9.169h-9.169Zm0 9.17v-9.17h9.169v9.17h-9.169Zm0 9.17v-9.17h9.169v9.17h-9.169Zm0 9.17v-9.17h9.169v9.17h-9.169Zm0 9.169v-9.169h9.169v9.169h-9.169Zm9.169-9.169v-9.17h9.17v9.17h-9.17Zm0-9.17v-9.17h9.17v9.17h-9.17Zm0-64.188v-9.17h9.17v9.17h-9.17Zm9.17 0v-9.17h9.17v9.17h-9.17Zm-18.339 0v-9.17h9.169v9.17h-9.169Zm-9.17 0v-9.17h9.17v9.17h-9.17Zm-9.17 0v-9.17h9.17v9.17h-9.17Zm36.679-64.189v-9.169h9.17v9.169h-9.17Zm0-9.169v-9.17h9.17v9.17h-9.17Zm-9.17-9.17V625h9.17v9.17h-9.17Zm-9.169 0V625h9.169v9.17h-9.169Zm0 9.17v-9.17h9.169v9.17h-9.169Zm-9.17 0v-9.17h9.17v9.17h-9.17Zm0 9.169v-9.169h9.17v9.169h-9.17Zm9.17 9.17v-9.17h9.169v9.17h-9.169Zm9.169 0v-9.17h9.17v9.17h-9.17Zm0-9.17v-9.169h9.17v9.169h-9.17Zm0-9.169v-9.17h9.17v9.17h-9.17Zm-9.169 9.169v-9.169h9.169v9.169h-9.169Zm9.169 18.34v-9.17h9.17v9.17h-9.17Zm-9.169 0v-9.17h9.169v9.17h-9.169Zm-9.17 0v-9.17h9.17v9.17h-9.17Zm0-36.679V625h9.17v9.17h-9.17Zm0 27.509v-9.17h9.17v9.17h-9.17Zm-9.17 0v-9.17h9.17v9.17h-9.17Zm0-9.17v-9.169h9.17v9.169h-9.17Zm0-9.169v-9.17h9.17v9.17h-9.17Zm36.679 18.339v-9.17h9.17v9.17h-9.17Zm-155.886 73.358h-9.169v-9.17h9.169v9.17Zm0-9.17h-9.169v-9.169h9.169v9.169Zm0-9.169h-9.169v-9.17h9.169v9.17Zm9.17 0h-9.17v-9.17h9.17v9.17Zm0 9.169h-9.17v-9.169h9.17v9.169Zm9.17 0h-9.17v-9.169h9.17v9.169Zm0 9.17h-9.17v-9.17h9.17v9.17Zm-9.17 0h-9.17v-9.17h9.17v9.17Zm18.34 0h-9.17v-9.17h9.17v9.17Zm0-9.17h-9.17v-9.169h9.17v9.169Zm0-9.169h-9.17v-9.17h9.17v9.17Zm0-9.17h-9.17v-9.17h9.17v9.17Zm-9.17 0h-9.17v-9.17h9.17v9.17Zm0 9.17h-9.17v-9.17h9.17v9.17Zm18.339-9.17h-9.169v-9.17h9.169v9.17Zm9.17 0h-9.17v-9.17h9.17v9.17Zm9.17 0h-9.17v-9.17h9.17v9.17Zm0 9.17h-9.17v-9.17h9.17v9.17Zm0 9.169h-9.17v-9.169h9.17v9.169Zm0 9.17h-9.17v-9.17h9.17v9.17Zm-9.17 0h-9.17v-9.17h9.17v9.17Zm-9.17 0h-9.169v-9.17h9.169v9.17Zm0-9.17h-9.169v-9.169h9.169v9.169Zm0-9.169h-9.169v-9.17h9.169v9.17Zm9.17 0h-9.17v-9.17h9.17v9.17Zm0 9.169h-9.17v-9.169h9.17v9.169Zm18.34 0h-9.17v-9.169h9.17v9.169Zm0-9.169h-9.17v-9.17h9.17v9.17Zm9.169 0h-9.169v-9.17h9.169v9.17Zm0 9.169h-9.169v-9.169h9.169v9.169Zm9.17 0h-9.17v-9.169h9.17v9.169Zm0 9.17h-9.17v-9.17h9.17v9.17Zm0 9.17h-9.17v-9.17h9.17v9.17Zm-9.17 0h-9.169v-9.17h9.169v9.17Zm0-9.17h-9.169v-9.17h9.169v9.17Zm-9.169 0h-9.17v-9.17h9.17v9.17Zm0 9.17h-9.17v-9.17h9.17v9.17Zm-9.17 0h-9.17v-9.17h9.17v9.17Zm-9.17 0h-9.17v-9.17h9.17v9.17Zm45.849 0h-9.17v-9.17h9.17v9.17Zm0 9.17h-9.17v-9.17h9.17v9.17Zm0 9.169h-9.17v-9.169h9.17v9.169Zm0 9.17h-9.17v-9.17h9.17v9.17Zm0 9.17h-9.17v-9.17h9.17v9.17Zm0 9.17h-9.17v-9.17h9.17v9.17Zm0 9.169h-9.17v-9.169h9.17v9.169Zm0 9.17h-9.17v-9.17h9.17v9.17Zm0 9.17h-9.17v-9.17h9.17v9.17Zm0 9.17h-9.17v-9.17h9.17v9.17Zm-9.17 0h-9.17v-9.17h9.17v9.17Zm0 9.169h-9.17v-9.169h9.17v9.169Zm9.17 0h-9.17v-9.169h9.17v9.169Zm-18.34 0h-9.169v-9.169h9.169v9.169Zm-9.169 0h-9.17v-9.169h9.17v9.169Zm-9.17 0h-9.17v-9.169h9.17v9.169Zm-9.17 0h-9.17v-9.169h9.17v9.169Zm9.17-9.169h-9.17v-9.17h9.17v9.17Zm0-9.17h-9.17v-9.17h9.17v9.17Zm0-9.17h-9.17v-9.17h9.17v9.17Zm0-9.17h-9.17v-9.169h9.17v9.169Zm0-9.169h-9.17v-9.17h9.17v9.17Zm0-9.17h-9.17v-9.17h9.17v9.17Zm0-9.17h-9.17v-9.17h9.17v9.17Zm0-9.17h-9.17v-9.169h9.17v9.169Zm0-9.169h-9.17v-9.17h9.17v9.17Zm9.17 0h-9.17v-9.17h9.17v9.17Zm9.169 0h-9.169v-9.17h9.169v9.17Zm9.17 0h-9.17v-9.17h9.17v9.17Zm0 9.169h-9.17v-9.169h9.17v9.169Zm0 9.17h-9.17v-9.17h9.17v9.17Zm0 9.17h-9.17v-9.17h9.17v9.17Zm0 9.17h-9.17v-9.17h9.17v9.17Zm0 9.169h-9.17v-9.169h9.17v9.169Zm0 9.17h-9.17v-9.17h9.17v9.17Zm0 9.17h-9.17v-9.17h9.17v9.17Zm-9.17 9.17h-9.169v-9.17h9.169v9.17Zm-9.169 0h-9.17v-9.17h9.17v9.17Zm0-9.17h-9.17v-9.17h9.17v9.17Zm0-9.17h-9.17v-9.17h9.17v9.17Zm0-9.17h-9.17v-9.169h9.17v9.169Zm0-9.169h-9.17v-9.17h9.17v9.17Zm9.169 0h-9.169v-9.17h9.169v9.17Zm0-9.17h-9.169v-9.17h9.169v9.17Zm0-9.17h-9.169v-9.17h9.169v9.17Zm0-9.17h-9.169v-9.169h9.169v9.169Zm-9.169 0h-9.17v-9.169h9.17v9.169Zm0 9.17h-9.17v-9.17h9.17v9.17Zm0 9.17h-9.17v-9.17h9.17v9.17Zm9.169 27.509h-9.169v-9.17h9.169v9.17Zm0 9.17h-9.169v-9.17h9.169v9.17Zm0-18.34h-9.169v-9.169h9.169v9.169Zm-73.358 45.849h-9.169v-9.17h9.169v9.17Zm9.17 27.509h-9.17v-9.169h9.17v9.169Zm9.17 0h-9.17v-9.169h9.17v9.169Zm9.17 0h-9.17v-9.169h9.17v9.169Zm9.169 0h-9.169v-9.169h9.169v9.169Zm9.17 0h-9.17v-9.169h9.17v9.169Zm9.17 0h-9.17v-9.169h9.17v9.169Zm-9.17-9.169h-9.17v-9.17h9.17v9.17Zm-9.17 0h-9.169v-9.17h9.169v9.17Zm-9.169 0h-9.17v-9.17h9.17v9.17Zm-9.17 0h-9.17v-9.17h9.17v9.17Zm-9.17 0h-9.17v-9.17h9.17v9.17Zm-9.17 0h-9.169v-9.17h9.169v9.17Zm0-9.17h-9.169v-9.17h9.169v9.17Zm9.17 0h-9.17v-9.17h9.17v9.17Zm9.17 0h-9.17v-9.17h9.17v9.17Zm9.17 0h-9.17v-9.17h9.17v9.17Zm9.169 0h-9.169v-9.17h9.169v9.17Zm9.17 0h-9.17v-9.17h9.17v9.17Zm9.17 9.17h-9.17v-9.17h9.17v9.17Zm9.17 0h-9.17v-9.17h9.17v9.17Zm9.169 0h-9.169v-9.17h9.169v9.17Zm0-9.17h-9.169v-9.17h9.169v9.17Zm9.17 0h-9.17v-9.17h9.17v9.17Zm0-9.17h-9.17v-9.17h9.17v9.17Zm-9.17 0h-9.169v-9.17h9.169v9.17Zm-9.169 0h-9.17v-9.17h9.17v9.17Zm-9.17 0h-9.17v-9.17h9.17v9.17Zm-9.17 0h-9.17v-9.17h9.17v9.17Zm-9.17 0h-9.169v-9.17h9.169v9.17Zm-9.169 0h-9.17v-9.17h9.17v9.17Zm-9.17 0h-9.17v-9.17h9.17v9.17Zm-9.17 0h-9.17v-9.17h9.17v9.17Zm45.849 9.17h-9.17v-9.17h9.17v9.17Zm9.17 0h-9.17v-9.17h9.17v9.17Zm-73.358 0h-9.17v-9.17h9.17v9.17Zm0-9.17h-9.17v-9.17h9.17v9.17Zm0-9.17h-9.17v-9.169h9.17v9.169Zm0-9.169h-9.17v-9.17h9.17v9.17Zm0-9.17h-9.17v-9.17h9.17v9.17Zm0-9.17h-9.17v-9.17h9.17v9.17Zm0-9.17h-9.17v-9.169h9.17v9.169Zm0-9.169h-9.17v-9.17h9.17v9.17Zm0-9.17h-9.17v-9.17h9.17v9.17Zm0-9.17h-9.17v-9.17h9.17v9.17Zm0-9.17h-9.17v-9.169h9.17v9.169Zm0-9.169h-9.17v-9.17h9.17v9.17Zm0-9.17h-9.17v-9.17h9.17v9.17Zm-9.17 0h-9.17v-9.17h9.17v9.17Zm0 9.17h-9.17v-9.17h9.17v9.17Zm0 9.169h-9.17v-9.169h9.17v9.169Zm0 9.17h-9.17v-9.17h9.17v9.17Zm0 9.17h-9.17v-9.17h9.17v9.17Zm0 9.17h-9.17v-9.17h9.17v9.17Zm0 9.169h-9.17v-9.169h9.17v9.169Zm-9.17 9.17h-9.17v-9.17h9.17v9.17Zm0 9.17h-9.17v-9.17h9.17v9.17Zm0 9.17h-9.17v-9.17h9.17v9.17Zm0 9.169h-9.17v-9.169h9.17v9.169Zm0 9.17h-9.17v-9.17h9.17v9.17Zm0 9.17h-9.17v-9.17h9.17v9.17Zm0 9.17h-9.17v-9.17h9.17v9.17Zm0 9.169h-9.17v-9.169h9.17v9.169Zm-9.17 0h-9.17v-9.169h9.17v9.169Zm-9.17 0h-9.169v-9.169h9.169v9.169Zm0-9.169h-9.169v-9.17h9.169v9.17Zm0-9.17h-9.169v-9.17h9.169v9.17Zm0-9.17h-9.169v-9.17h9.169v9.17Zm0-9.17h-9.169v-9.169h9.169v9.169Zm0-9.169h-9.169v-9.17h9.169v9.17Zm0-9.17h-9.169v-9.17h9.169v9.17Zm0-9.17h-9.169v-9.17h9.169v9.17Zm9.17 0h-9.17v-9.17h9.17v9.17Zm0-9.17h-9.17v-9.169h9.17v9.169Zm0 18.34h-9.17v-9.17h9.17v9.17Zm0 9.17h-9.17v-9.17h9.17v9.17Zm0 9.169h-9.17v-9.169h9.17v9.169Zm0 9.17h-9.17v-9.17h9.17v9.17Zm0 9.17h-9.17v-9.17h9.17v9.17Zm0 9.17h-9.17v-9.17h9.17v9.17Zm18.34-9.17h-9.17v-9.17h9.17v9.17Zm0-9.17h-9.17v-9.17h9.17v9.17Zm0-9.17h-9.17v-9.169h9.17v9.169Zm0-9.169h-9.17v-9.17h9.17v9.17Zm0-9.17h-9.17v-9.17h9.17v9.17Zm0-9.17h-9.17v-9.17h9.17v9.17Zm9.17-155.886h-9.17v-9.169h9.17v9.169Zm0 9.17h-9.17v-9.17h9.17v9.17Zm0 9.17h-9.17v-9.17h9.17v9.17Zm0 9.17h-9.17v-9.17h9.17v9.17Zm0 9.169h-9.17v-9.169h9.17v9.169Zm0 9.17h-9.17v-9.17h9.17v9.17Zm0 18.34h-9.17v-9.17h9.17v9.17Zm0 18.339h-9.17v-9.17h9.17v9.17Zm-27.51-82.528h-9.17v-9.169h9.17v9.169Zm0 9.17h-9.17v-9.17h9.17v9.17Zm0 9.17h-9.17v-9.17h9.17v9.17Zm0 9.17h-9.17v-9.17h9.17v9.17Zm0 9.169h-9.17v-9.169h9.17v9.169Zm0 9.17h-9.17v-9.17h9.17v9.17Zm0 18.34h-9.17v-9.17h9.17v9.17Zm0 9.169h-9.17v-9.169h9.17v9.169Zm0 9.17h-9.17v-9.17h9.17v9.17Zm0 18.34h-9.17v-9.17h9.17v9.17Zm0 9.169h-9.17v-9.169h9.17v9.169Zm0 9.17h-9.17v-9.17h9.17v9.17Zm-9.17 9.17h-9.169v-9.17h9.169v9.17Zm0 9.17h-9.169v-9.17h9.169v9.17Zm0 9.169h-9.169v-9.169h9.169v9.169Zm0-27.509h-9.169v-9.17h9.169v9.17Zm0-9.17h-9.169v-9.169h9.169v9.169Zm0-18.339h-9.169v-9.17h9.169v9.17Zm0-9.17h-9.169v-9.17h9.169v9.17Zm0-9.17h-9.169v-9.169h9.169v9.169Zm0-9.169h-9.169v-9.17h9.169v9.17Zm0-9.17h-9.169v-9.17h9.169v9.17Zm0-9.17h-9.169v-9.17h9.169v9.17Zm0-9.17h-9.169v-9.169h9.169v9.169Zm9.17 18.34h-9.17v-9.17h9.17v9.17Zm-9.17-27.509h-9.169v-9.17h9.169v9.17Zm0-9.17h-9.169v-9.17h9.169v9.17Zm0-9.17h-9.169v-9.17h9.169v9.17Zm0-9.17h-9.169v-9.169h9.169v9.169Zm18.34 0h-9.17v-9.169h9.17v9.169Zm9.17 0h-9.17v-9.169h9.17v9.169Zm0 9.17h-9.17v-9.17h9.17v9.17Zm-9.17 0h-9.17v-9.17h9.17v9.17Zm0 9.17h-9.17v-9.17h9.17v9.17Zm0 9.17h-9.17v-9.17h9.17v9.17Zm0 9.169h-9.17v-9.169h9.17v9.169Zm0 9.17h-9.17v-9.17h9.17v9.17Zm0 9.17h-9.17v-9.17h9.17v9.17Zm0 9.17h-9.17v-9.17h9.17v9.17Zm9.17 9.169h-9.17v-9.169h9.17v9.169Zm0 9.17h-9.17v-9.17h9.17v9.17Zm0-18.339h-9.17v-9.17h9.17v9.17Zm0-9.17h-9.17v-9.17h9.17v9.17Zm0-9.17h-9.17v-9.17h9.17v9.17Zm0-9.17h-9.17v-9.169h9.17v9.169Zm0-9.169h-9.17v-9.17h9.17v9.17Zm0-9.17h-9.17v-9.17h9.17v9.17Zm-9.17 64.188h-9.17v-9.17h9.17v9.17Zm0 18.34h-9.17v-9.17h9.17v9.17Zm0 9.169h-9.17v-9.169h9.17v9.169Zm0 9.17h-9.17v-9.17h9.17v9.17Zm0 9.17h-9.17v-9.17h9.17v9.17Zm0 9.17h-9.17v-9.17h9.17v9.17Zm0 9.169h-9.17v-9.169h9.17v9.169Zm-9.17-9.169h-9.17v-9.17h9.17v9.17Zm0-9.17h-9.17v-9.17h9.17v9.17Zm27.51-73.358h-9.17v-9.17h9.17v9.17Zm-36.68 45.849h-9.169v-9.17h9.169v9.17Zm36.68-27.51h-9.17v-9.169h9.17v9.169Zm-18.34 0h-9.17v-9.169h9.17v9.169Zm0 18.34h-9.17v-9.17h9.17v9.17Zm-9.17 0h-9.17v-9.17h9.17v9.17Zm36.679 128.376h-9.169v-9.169h9.169v9.169Zm-9.169-9.169h-9.17v-9.17h9.17v9.17Zm-9.17 0h-9.17v-9.17h9.17v9.17Zm0 9.169h-9.17v-9.169h9.17v9.169Zm18.339-165.055v-9.17h9.17v9.17h-9.17Zm-18.339 165.055v-9.169h9.17v9.169h-9.17Zm9.17-128.376v-9.17h9.169v9.17h-9.169Zm-119.186 18.345v-9.169h9.169v9.169h-9.169Zm9.169 0v-9.169h9.169v9.169h-9.169Zm9.169 0v-9.169h9.17v9.169h-9.17Zm9.17 0v-9.169h9.169v9.169h-9.169Zm9.169 0v-9.169h9.169v9.169h-9.169Zm0-9.169v-9.17h9.169v9.17h-9.169Zm0-9.17v-9.169h9.169v9.169h-9.169Zm-9.169 0v-9.169h9.169v9.169h-9.169Zm-9.17 0v-9.169h9.17v9.169h-9.17Zm-9.169 0v-9.169h9.169v9.169h-9.169Zm0 9.17v-9.17h9.169v9.17h-9.169Zm-9.169 0v-9.17h9.169v9.17h-9.169Zm18.338 0v-9.17h9.17v9.17h-9.17Zm9.17 0v-9.17h9.169v9.17h-9.169Zm-27.508-9.17v-9.169h9.169v9.169h-9.169Zm-9.169 0v-9.169h9.169v9.169h-9.169Zm0-9.169v-9.169h9.169v9.169h-9.169Zm9.169 0v-9.169h9.169v9.169h-9.169Zm9.169 0v-9.169h9.169v9.169h-9.169Zm9.169 0v-9.169h9.17v9.169h-9.17Zm9.17 0v-9.169h9.169v9.169h-9.169Zm0-9.169v-9.17h9.169v9.17h-9.169Zm-9.17 0v-9.17h9.17v9.17h-9.17Zm-9.169 0v-9.17h9.169v9.17h-9.169Zm-9.169 0v-9.17h9.169v9.17h-9.169Zm-9.169 0v-9.17h9.169v9.17h-9.169Zm18.338-9.17v-9.169h9.169v9.169h-9.169Zm9.169 0v-9.169h9.17v9.169h-9.17Zm-18.338 0v-9.169h9.169v9.169h-9.169Zm0-9.169v-9.169h9.169v9.169h-9.169Zm-9.169 0v-9.169h9.169v9.169h-9.169Zm0 9.169v-9.169h9.169v9.169h-9.169Zm-9.17 0v-9.169h9.17v9.169h-9.17Zm0-9.169v-9.169h9.17v9.169h-9.17Zm0 18.339v-9.17h9.17v9.17h-9.17Zm-9.169 0v-9.17h9.169v9.17h-9.169Zm0 9.169v-9.169h9.169v9.169h-9.169Zm9.169 0v-9.169h9.17v9.169h-9.17Zm-18.338 0v-9.169h9.169v9.169h-9.169Zm0-9.169v-9.17h9.169v9.17h-9.169Zm0-9.17v-9.169h9.169v9.169h-9.169Zm0-9.169v-9.169h9.169v9.169h-9.169Zm9.169 0v-9.169h9.169v9.169h-9.169Zm0 9.169v-9.169h9.169v9.169h-9.169Zm-18.339-9.169v-9.169h9.17v9.169h-9.17Zm-9.169 0v-9.169h9.169v9.169h-9.169Zm-9.169 0v-9.169h9.169v9.169h-9.169Zm0 9.169v-9.169h9.169v9.169h-9.169Zm0 9.17v-9.17h9.169v9.17h-9.169Zm0 9.169v-9.169h9.169v9.169h-9.169Zm9.169 0v-9.169h9.169v9.169h-9.169Zm9.169 0v-9.169h9.17v9.169h-9.17Zm0-9.169v-9.17h9.17v9.17h-9.17Zm0-9.17v-9.169h9.17v9.169h-9.17Zm-9.169 0v-9.169h9.169v9.169h-9.169Zm0 9.17v-9.17h9.169v9.17h-9.169Zm-18.338 0v-9.17h9.169v9.17h-9.169Zm0-9.17v-9.169h9.169v9.169h-9.169Zm-9.17 0v-9.169h9.17v9.169h-9.17Zm0 9.17v-9.17h9.17v9.17h-9.17Zm-9.169 0v-9.17h9.169v9.17h-9.169Zm0 9.169v-9.169h9.169v9.169h-9.169Zm0 9.169v-9.169h9.169v9.169h-9.169Zm9.169 0v-9.169h9.17v9.169h-9.17Zm0-9.169v-9.169h9.17v9.169h-9.17Zm9.17 0v-9.169h9.169v9.169h-9.169Zm0 9.169v-9.169h9.169v9.169h-9.169Zm9.169 0v-9.169h9.169v9.169h-9.169Zm9.169 0v-9.169h9.169v9.169h-9.169Zm-45.846 0v-9.169h9.169v9.169h-9.169Zm0 9.17v-9.17h9.169v9.17h-9.169Zm0 9.169v-9.169h9.169v9.169h-9.169Zm0 9.169v-9.169h9.169v9.169h-9.169Zm0 9.169v-9.169h9.169v9.169h-9.169Zm0 9.17v-9.17h9.169v9.17h-9.169Zm0 9.169v-9.169h9.169v9.169h-9.169Zm0 9.169v-9.169h9.169v9.169h-9.169Zm0 9.17v-9.17h9.169v9.17h-9.169Zm0 9.169v-9.169h9.169v9.169h-9.169Zm9.169 0v-9.169h9.169v9.169h-9.169Zm0 9.169v-9.169h9.169v9.169h-9.169Zm-9.169 0v-9.169h9.169v9.169h-9.169Zm18.338 0v-9.169h9.17v9.169h-9.17Zm9.17 0v-9.169h9.169v9.169h-9.169Zm9.169 0v-9.169h9.169v9.169h-9.169Zm9.169 0v-9.169h9.169v9.169h-9.169Zm-9.169-9.169v-9.169h9.169v9.169h-9.169Zm0-9.169v-9.17h9.169v9.17h-9.169Zm0-9.17v-9.169h9.169v9.169h-9.169Zm0-9.169v-9.169h9.169v9.169h-9.169Zm0-9.169v-9.17h9.169v9.17h-9.169Zm0-9.17v-9.169h9.169v9.169h-9.169Zm0-9.169v-9.169h9.169v9.169h-9.169Zm0-9.169v-9.169h9.169v9.169h-9.169Zm0-9.169v-9.17h9.169v9.17h-9.169Zm-9.169 0v-9.17h9.169v9.17h-9.169Zm-9.17 0v-9.17h9.17v9.17h-9.17Zm-9.169 0v-9.17h9.169v9.17h-9.169Zm0 9.169v-9.169h9.169v9.169h-9.169Zm0 9.169v-9.169h9.169v9.169h-9.169Zm0 9.169v-9.169h9.169v9.169h-9.169Zm0 9.17v-9.17h9.169v9.17h-9.169Zm0 9.169v-9.169h9.169v9.169h-9.169Zm0 9.169v-9.169h9.169v9.169h-9.169Zm0 9.17v-9.17h9.169v9.17h-9.169Zm9.169 9.169v-9.169h9.17v9.169h-9.17Zm9.17 0v-9.169h9.169v9.169h-9.169Zm0-9.169v-9.17h9.169v9.17h-9.169Zm0-9.17v-9.169h9.169v9.169h-9.169Zm0-9.169v-9.169h9.169v9.169h-9.169Zm0-9.169v-9.17h9.169v9.17h-9.169Zm-9.17 0v-9.17h9.17v9.17h-9.17Zm0-9.17v-9.169h9.17v9.169h-9.17Zm0-9.169v-9.169h9.17v9.169h-9.17Zm0-9.169v-9.169h9.17v9.169h-9.17Zm9.17 0v-9.169h9.169v9.169h-9.169Zm0 9.169v-9.169h9.169v9.169h-9.169Zm0 9.169v-9.169h9.169v9.169h-9.169Zm-9.17 27.508v-9.169h9.17v9.169h-9.17Zm0 9.17v-9.17h9.17v9.17h-9.17Zm0-18.339v-9.169h9.17v9.169h-9.17Zm82.524 18.339v-9.17h9.169v9.17h-9.169Zm0 9.169v-9.169h9.169v9.169h-9.169Zm9.169 0v-9.169h9.169v9.169h-9.169Zm9.169 0v-9.169h9.17v9.169h-9.17Zm9.17 0v-9.169h9.169v9.169h-9.169Zm9.169 0v-9.169h9.169v9.169h-9.169Zm0-9.169v-9.17h9.169v9.17h-9.169Zm-9.169 0v-9.17h9.169v9.17h-9.169Zm-9.17 0v-9.17h9.17v9.17h-9.17Zm-9.169 0v-9.17h9.169v9.17h-9.169Zm27.508 18.338v-9.169h9.169v9.169h-9.169Zm-9.169 0v-9.169h9.169v9.169h-9.169Zm-9.17 0v-9.169h9.17v9.169h-9.17Zm-9.169 0v-9.169h9.169v9.169h-9.169Zm-9.169 0v-9.169h9.169v9.169h-9.169Zm-9.169 0v-9.169h9.169v9.169h-9.169Zm0 9.169v-9.169h9.169v9.169h-9.169Zm9.169 0v-9.169h9.169v9.169h-9.169Zm9.169 0v-9.169h9.169v9.169h-9.169Zm9.169 0v-9.169h9.17v9.169h-9.17Zm0 9.17v-9.17h9.17v9.17h-9.17Zm9.17 0v-9.17h9.169v9.17h-9.169Zm0-9.17v-9.169h9.169v9.169h-9.169Zm-9.17 18.339v-9.169h9.17v9.169h-9.17Zm-9.169 0v-9.169h9.169v9.169h-9.169Zm0-9.169v-9.17h9.169v9.17h-9.169Zm-9.169 0v-9.17h9.169v9.17h-9.169Zm0 9.169v-9.169h9.169v9.169h-9.169Zm0 9.169v-9.169h9.169v9.169h-9.169Zm-9.169 0v-9.169h9.169v9.169h-9.169Zm-9.17 0v-9.169h9.17v9.169h-9.17Zm-9.169 0v-9.169h9.169v9.169h-9.169Zm-9.169 0v-9.169h9.169v9.169h-9.169Zm-9.17 0v-9.169h9.17v9.169h-9.17Zm-9.169 0v-9.169h9.169v9.169h-9.169Zm-9.169 0v-9.169h9.169v9.169h-9.169Zm9.169-9.169v-9.169h9.169v9.169h-9.169Zm9.169 0v-9.169h9.17v9.169h-9.17Zm9.17 0v-9.169h9.169v9.169h-9.169Zm9.169 0v-9.169h9.169v9.169h-9.169Zm9.169 0v-9.169h9.17v9.169h-9.17Zm9.17 0v-9.169h9.169v9.169h-9.169Zm0-9.169v-9.17h9.169v9.17h-9.169Zm-9.17 0v-9.17h9.17v9.17h-9.17Zm-9.169 0v-9.17h9.169v9.17h-9.169Zm-9.169 0v-9.17h9.169v9.17h-9.169Zm-9.17 0v-9.17h9.17v9.17h-9.17Zm-9.169 0v-9.17h9.169v9.17h-9.169Zm-9.169 9.169v-9.169h9.169v9.169h-9.169Zm-9.169 0v-9.169h9.169v9.169h-9.169Zm-9.17 0v-9.169h9.17v9.169h-9.17Zm0-9.169v-9.17h9.17v9.17h-9.17Zm-9.169 0v-9.17h9.169v9.17h-9.169Zm0-9.17v-9.169h9.169v9.169h-9.169Zm9.169 0v-9.169h9.17v9.169h-9.17Zm9.17 0v-9.169h9.169v9.169h-9.169Zm9.169 0v-9.169h9.169v9.169h-9.169Zm9.169 0v-9.169h9.169v9.169h-9.169Zm9.169 0v-9.169h9.17v9.169h-9.17Zm9.17 0v-9.169h9.169v9.169h-9.169Zm9.169 0v-9.169h9.169v9.169h-9.169Zm9.169 0v-9.169h9.17v9.169h-9.17Zm-45.846 9.17v-9.17h9.169v9.17h-9.169Zm-9.169 0v-9.17h9.169v9.17h-9.169Zm73.354-82.524v-9.169h9.169v9.169h-9.169Zm0 9.169v-9.169h9.169v9.169h-9.169Zm9.169 0v-9.169h9.169v9.169h-9.169Zm9.169 0v-9.169h9.17v9.169h-9.17Zm9.17 0v-9.169h9.169v9.169h-9.169Zm9.169 0v-9.169h9.169v9.169h-9.169Zm0-9.169v-9.169h9.169v9.169h-9.169Zm-9.169 0v-9.169h9.169v9.169h-9.169Zm-9.17 0v-9.169h9.17v9.169h-9.17Zm-9.169 0v-9.169h9.169v9.169h-9.169Zm0 18.339v-9.17h9.169v9.17h-9.169Zm9.169 0v-9.17h9.17v9.17h-9.17Zm0 9.169v-9.169h9.17v9.169h-9.17Zm9.17 0v-9.169h9.169v9.169h-9.169Zm0-9.169v-9.17h9.169v9.17h-9.169Zm9.169 0v-9.17h9.169v9.17h-9.169Zm0 9.169v-9.169h9.169v9.169h-9.169Zm0 9.169v-9.169h9.169v9.169h-9.169Zm-9.169 0v-9.169h9.169v9.169h-9.169Zm-9.17 0v-9.169h9.17v9.169h-9.17Zm-9.169 0v-9.169h9.169v9.169h-9.169Zm0-9.169v-9.169h9.169v9.169h-9.169Zm-9.169 0v-9.169h9.169v9.169h-9.169Zm0-9.169v-9.17h9.169v9.17h-9.169Zm0 18.338v-9.169h9.169v9.169h-9.169Zm-330.094 64.185v-9.169h9.169v9.169h-9.169Zm0-9.169v-9.169h9.169v9.169h-9.169Zm0-9.169v-9.17h9.169v9.17h-9.169Zm0-9.17v-9.169h9.169v9.169h-9.169Zm0-9.169v-9.169h9.169v9.169h-9.169Zm0-9.169v-9.169h9.169v9.169h-9.169Zm0-9.169v-9.17h9.169v9.17h-9.169Zm0-9.17v-9.169h9.169v9.169h-9.169Zm0-9.169v-9.169h9.169v9.169h-9.169Zm0-9.169v-9.17h9.169v9.17h-9.169Zm0-9.17v-9.169h9.169v9.169h-9.169Zm0-9.169v-9.169h9.169v9.169h-9.169Zm0-9.169v-9.169h9.169v9.169h-9.169Zm0-9.169v-9.17h9.169v9.17h-9.169Zm0-9.17v-9.169h9.169v9.169h-9.169Zm9.169 0v-9.169h9.169v9.169h-9.169Zm0 9.17v-9.17h9.169v9.17h-9.169Zm0 9.169v-9.169h9.169v9.169h-9.169Zm0 9.169v-9.169h9.169v9.169h-9.169Zm0 9.169v-9.169h9.169v9.169h-9.169Zm0 9.17v-9.17h9.169v9.17h-9.169Zm0 9.169v-9.169h9.169v9.169h-9.169Zm9.169 9.169v-9.169h9.17v9.169h-9.17Zm0 9.17v-9.17h9.17v9.17h-9.17Zm0 9.169v-9.169h9.17v9.169h-9.17Zm0 9.169v-9.169h9.17v9.169h-9.17Zm0 9.169v-9.169h9.17v9.169h-9.17Zm0 9.17v-9.17h9.17v9.17h-9.17Zm0 9.169v-9.169h9.17v9.169h-9.17Zm0 9.169v-9.169h9.17v9.169h-9.17Zm9.17 0v-9.169h9.169v9.169h-9.169Zm9.169 0v-9.169h9.169v9.169h-9.169Zm0-9.169v-9.169h9.169v9.169h-9.169Zm0-9.169v-9.17h9.169v9.17h-9.169Zm0-9.17v-9.169h9.169v9.169h-9.169Zm0-9.169v-9.169h9.169v9.169h-9.169Zm0-9.169v-9.169h9.169v9.169h-9.169Zm0-9.169v-9.17h9.169v9.17h-9.169Zm0-9.17v-9.169h9.169v9.169h-9.169Zm-9.169 0v-9.169h9.169v9.169h-9.169Zm0-9.169v-9.169h9.169v9.169h-9.169Zm0 18.339v-9.17h9.169v9.17h-9.169Zm0 9.169v-9.169h9.169v9.169h-9.169Zm0 9.169v-9.169h9.169v9.169h-9.169Zm0 9.169v-9.169h9.169v9.169h-9.169Zm0 9.17v-9.17h9.169v9.17h-9.169Zm0 9.169v-9.169h9.169v9.169h-9.169Zm-18.339 9.169v-9.169h9.169v9.169h-9.169Zm0-9.169v-9.169h9.169v9.169h-9.169Zm0-9.169v-9.17h9.169v9.17h-9.169Zm0-9.17v-9.169h9.169v9.169h-9.169Zm0-9.169v-9.169h9.169v9.169h-9.169Zm0-9.169v-9.169h9.169v9.169h-9.169Zm0-9.169v-9.17h9.169v9.17h-9.169Zm0-9.17v-9.169h9.169v9.169h-9.169Zm-9.169-100.862v-9.169h9.169v9.169h-9.169Zm0 9.169v-9.169h9.169v9.169h-9.169Zm0 9.17v-9.17h9.169v9.17h-9.169Zm0 9.169v-9.169h9.169v9.169h-9.169Zm27.508-18.339v-9.169h9.169v9.169h-9.169Zm0 9.17v-9.17h9.169v9.17h-9.169Zm0 9.169v-9.169h9.169v9.169h-9.169Zm0 9.169v-9.169h9.169v9.169h-9.169Zm0 9.17v-9.17h9.169v9.17h-9.169Zm0 9.169v-9.169h9.169v9.169h-9.169Zm0 9.169v-9.169h9.169v9.169h-9.169Zm9.169 9.169v-9.169h9.169v9.169h-9.169Zm0 9.17v-9.17h9.169v9.17h-9.169Zm0 9.169v-9.169h9.169v9.169h-9.169Zm0-27.508v-9.169h9.169v9.169h-9.169Zm0-9.169v-9.169h9.169v9.169h-9.169Zm0-9.169v-9.17h9.169v9.17h-9.169Zm0-9.17v-9.169h9.169v9.169h-9.169Zm0-9.169v-9.169h9.169v9.169h-9.169Zm0-9.169v-9.17h9.169v9.17h-9.169Zm0-9.17v-9.169h9.169v9.169h-9.169Zm0-9.169v-9.169h9.169v9.169h-9.169Zm-9.169 0v-9.169h9.169v9.169h-9.169Zm-9.17 0v-9.169h9.17v9.169h-9.17Zm0 9.169v-9.169h9.17v9.169h-9.17Zm-9.169 9.17v-9.17h9.169v9.17h-9.169Zm0 9.169v-9.169h9.169v9.169h-9.169Zm0-18.339v-9.169h9.169v9.169h-9.169Zm0-9.169v-9.169h9.169v9.169h-9.169Zm9.169 18.339v-9.17h9.17v9.17h-9.17Zm0 9.169v-9.169h9.17v9.169h-9.17Zm0 9.169v-9.169h9.17v9.169h-9.17Zm0 9.17v-9.17h9.17v9.17h-9.17Zm0 9.169v-9.169h9.17v9.169h-9.17Zm0 9.169v-9.169h9.17v9.169h-9.17Zm0 9.169v-9.169h9.17v9.169h-9.17Zm0 9.17v-9.17h9.17v9.17h-9.17Zm0 9.169v-9.169h9.17v9.169h-9.17Zm9.17-9.169v-9.17h9.169v9.17h-9.169Zm0-9.17v-9.169h9.169v9.169h-9.169Zm55.015 91.693v-9.169h9.169v9.169h-9.169Zm9.169 0v-9.169h9.17v9.169h-9.17Zm9.17 0v-9.169h9.169v9.169h-9.169Zm9.169 0v-9.169h9.169v9.169h-9.169Zm9.169-9.169v-9.169h9.17v9.169h-9.17Zm0-9.169v-9.17h9.17v9.17h-9.17Zm0 18.338v-9.169h9.17v9.169h-9.17Zm-9.169-9.169v-9.169h9.169v9.169h-9.169Zm-9.169 0v-9.169h9.169v9.169h-9.169Zm-9.17 0v-9.169h9.17v9.169h-9.17Zm-9.169 0v-9.169h9.169v9.169h-9.169Zm0-9.169v-9.17h9.169v9.17h-9.169Zm0-9.17v-9.169h9.169v9.169h-9.169Zm9.169 0v-9.169h9.17v9.169h-9.17Zm9.17 0v-9.169h9.169v9.169h-9.169Zm9.169 0v-9.169h9.169v9.169h-9.169Zm9.169 0v-9.169h9.17v9.169h-9.17Zm-9.169 9.17v-9.17h9.169v9.17h-9.169Zm-9.169 0v-9.17h9.169v9.17h-9.169Zm-9.17 0v-9.17h9.17v9.17h-9.17Zm18.339-110.032v-9.169h9.169v9.169h-9.169Zm-18.339 0v-9.169h9.17v9.169h-9.17Zm0 9.17v-9.17h9.17v9.17h-9.17Zm0 9.169v-9.169h9.17v9.169h-9.17Zm-9.169 9.169v-9.169h9.169v9.169h-9.169Zm0 9.169v-9.169h9.169v9.169h-9.169Zm0 9.17v-9.17h9.169v9.17h-9.169Zm0 9.169v-9.169h9.169v9.169h-9.169Zm0 9.169v-9.169h9.169v9.169h-9.169Zm0 9.17v-9.17h9.169v9.17h-9.169Zm0 9.169v-9.169h9.169v9.169h-9.169Zm0 9.169v-9.169h9.169v9.169h-9.169Zm9.169 0v-9.169h9.17v9.169h-9.17Zm9.17 0v-9.169h9.169v9.169h-9.169Zm9.169 0v-9.169h9.169v9.169h-9.169Zm9.169 0v-9.169h9.17v9.169h-9.17Zm0-9.169v-9.169h9.17v9.169h-9.17Zm0-18.339v-9.169h9.17v9.169h-9.17Zm0-9.169v-9.169h9.17v9.169h-9.17Zm0-9.169v-9.17h9.17v9.17h-9.17Zm0-9.17v-9.169h9.17v9.169h-9.17Zm0-9.169v-9.169h9.17v9.169h-9.17Zm0-9.169v-9.169h9.17v9.169h-9.17Zm-9.169 27.508v-9.17h9.169v9.17h-9.169Zm0 18.338v-9.169h9.169v9.169h-9.169Zm0 9.17v-9.17h9.169v9.17h-9.169Zm0 9.169v-9.169h9.169v9.169h-9.169Zm9.169-9.169v-9.17h9.17v9.17h-9.17Zm-9.169-45.847v-9.169h9.169v9.169h-9.169Zm-9.169 0v-9.169h9.169v9.169h-9.169Zm-9.17 0v-9.169h9.17v9.169h-9.17Zm0 9.169v-9.169h9.17v9.169h-9.17Zm0 9.17v-9.17h9.17v9.17h-9.17Zm0 9.169v-9.169h9.17v9.169h-9.17Zm0 9.169v-9.169h9.17v9.169h-9.17Zm0 9.17v-9.17h9.17v9.17h-9.17Zm0 9.169v-9.169h9.17v9.169h-9.17Zm9.17 0v-9.169h9.169v9.169h-9.169Zm0-9.169v-9.17h9.169v9.17h-9.169Zm0-9.17v-9.169h9.169v9.169h-9.169Zm0-9.169v-9.169h9.169v9.169h-9.169Zm0-9.169v-9.17h9.169v9.17h-9.169Zm0-9.17v-9.169h9.169v9.169h-9.169Zm9.169 0v-9.169h9.169v9.169h-9.169Zm0 18.339v-9.169h9.169v9.169h-9.169Zm0-36.677v-9.169h9.169v9.169h-9.169Zm0-9.169v-9.17h9.169v9.17h-9.169Zm-9.169 0v-9.17h9.169v9.17h-9.169Zm0 9.169v-9.169h9.169v9.169h-9.169Zm-18.339 0v-9.169h9.169v9.169h-9.169Zm0-9.169v-9.17h9.169v9.17h-9.169Zm0-9.17v-9.169h9.169v9.169h-9.169Zm18.339 0v-9.169h9.169v9.169h-9.169Zm-18.339-36.677v-9.169h9.169v9.169h-9.169Zm0 9.169v-9.169h9.169v9.169h-9.169Zm9.169 0v-9.169h9.17v9.169h-9.17Zm9.17 0v-9.169h9.169v9.169h-9.169Zm0 9.17v-9.17h9.169v9.17h-9.169Zm9.169 0v-9.17h9.169v9.17h-9.169Zm0 9.169v-9.169h9.169v9.169h-9.169Zm-9.169 0v-9.169h9.169v9.169h-9.169Zm-9.17 0v-9.169h9.17v9.169h-9.17Zm0-9.169v-9.17h9.17v9.17h-9.17Zm-9.169 0v-9.17h9.169v9.17h-9.169Zm-9.169 0v-9.17h9.169v9.17h-9.169Zm0 9.169v-9.169h9.169v9.169h-9.169Zm9.169 0v-9.169h9.169v9.169h-9.169Zm-9.169 9.169v-9.169h9.169v9.169h-9.169Zm0-36.677v-9.169h9.169v9.169h-9.169Zm0 9.169v-9.169h9.169v9.169h-9.169Zm-9.169-9.169v-9.169h9.169v9.169h-9.169Zm0 9.169v-9.169h9.169v9.169h-9.169Zm0 9.17v-9.17h9.169v9.17h-9.169Zm-9.17-9.17v-9.169h9.17v9.169h-9.17Zm-9.169 9.17v-9.17h9.169v9.17h-9.169Zm0 9.169v-9.169h9.169v9.169h-9.169Zm9.169 0v-9.169h9.17v9.169h-9.17Zm0-9.169v-9.17h9.17v9.17h-9.17Zm-9.169 18.338v-9.169h9.169v9.169h-9.169Zm119.201 128.37v-9.169h9.169v9.169h-9.169Zm9.169 0v-9.169h9.169v9.169h-9.169Zm9.169 0v-9.169h9.17v9.169h-9.17Zm9.17 0v-9.169h9.169v9.169h-9.169Zm9.169-9.169v-9.169h9.169v9.169h-9.169Zm0-9.169v-9.17h9.169v9.17h-9.169Zm0 18.338v-9.169h9.169v9.169h-9.169Zm-9.169-9.169v-9.169h9.169v9.169h-9.169Zm-9.17 0v-9.169h9.17v9.169h-9.17Zm-9.169 0v-9.169h9.169v9.169h-9.169Zm-9.169 0v-9.169h9.169v9.169h-9.169Zm0-9.169v-9.17h9.169v9.17h-9.169Zm0-9.17v-9.169h9.169v9.169h-9.169Zm9.169 0v-9.169h9.169v9.169h-9.169Zm9.169 0v-9.169h9.17v9.169h-9.17Zm9.17 0v-9.169h9.169v9.169h-9.169Zm9.169 0v-9.169h9.169v9.169h-9.169Zm-9.169 9.17v-9.17h9.169v9.17h-9.169Zm-9.17 0v-9.17h9.17v9.17h-9.17Zm-9.169 0v-9.17h9.169v9.17h-9.169Zm27.508-110.032v-9.169h9.169v9.169h-9.169Zm-9.169 0v-9.169h9.169v9.169h-9.169Zm-18.339 0v-9.169h9.169v9.169h-9.169Zm0 9.17v-9.17h9.169v9.17h-9.169Zm0 9.169v-9.169h9.169v9.169h-9.169Zm-9.169 9.169v-9.169h9.169v9.169h-9.169Zm0 9.169v-9.169h9.169v9.169h-9.169Zm0 9.17v-9.17h9.169v9.17h-9.169Zm0 9.169v-9.169h9.169v9.169h-9.169Zm0 9.169v-9.169h9.169v9.169h-9.169Zm0 9.17v-9.17h9.169v9.17h-9.169Zm0 9.169v-9.169h9.169v9.169h-9.169Zm0 9.169v-9.169h9.169v9.169h-9.169Zm9.169 0v-9.169h9.169v9.169h-9.169Zm9.169 0v-9.169h9.17v9.169h-9.17Zm9.17 0v-9.169h9.169v9.169h-9.169Zm9.169 0v-9.169h9.169v9.169h-9.169Zm0-9.169v-9.169h9.169v9.169h-9.169Zm0-18.339v-9.169h9.169v9.169h-9.169Zm0-9.169v-9.169h9.169v9.169h-9.169Zm0-9.169v-9.17h9.169v9.17h-9.169Zm0-9.17v-9.169h9.169v9.169h-9.169Zm0-9.169v-9.169h9.169v9.169h-9.169Zm0-9.169v-9.169h9.169v9.169h-9.169Zm0-9.169v-9.17h9.169v9.17h-9.169Zm-9.169 36.677v-9.17h9.169v9.17h-9.169Zm0 18.338v-9.169h9.169v9.169h-9.169Zm0 9.17v-9.17h9.169v9.17h-9.169Zm0 9.169v-9.169h9.169v9.169h-9.169Zm9.169-9.169v-9.17h9.169v9.17h-9.169Zm-9.169-45.847v-9.169h9.169v9.169h-9.169Zm-9.17 0v-9.169h9.17v9.169h-9.17Zm-9.169 0v-9.169h9.169v9.169h-9.169Zm0 9.169v-9.169h9.169v9.169h-9.169Zm0 9.17v-9.17h9.169v9.17h-9.169Zm0 9.169v-9.169h9.169v9.169h-9.169Zm0 9.169v-9.169h9.169v9.169h-9.169Zm0 9.17v-9.17h9.169v9.17h-9.169Zm0 9.169v-9.169h9.169v9.169h-9.169Zm9.169 0v-9.169h9.17v9.169h-9.17Zm0-9.169v-9.17h9.17v9.17h-9.17Zm0-9.17v-9.169h9.17v9.169h-9.17Zm0-9.169v-9.169h9.17v9.169h-9.17Zm0-9.169v-9.17h9.17v9.17h-9.17Zm0-9.17v-9.169h9.17v9.169h-9.17Zm9.17 0v-9.169h9.169v9.169h-9.169Zm0 18.339v-9.169h9.169v9.169h-9.169Zm0-36.677v-9.169h9.169v9.169h-9.169Zm0-9.169v-9.17h9.169v9.17h-9.169Zm-9.17 0v-9.17h9.17v9.17h-9.17Zm0 9.169v-9.169h9.17v9.169h-9.17Zm-18.338 0v-9.169h9.169v9.169h-9.169Zm0-9.169v-9.17h9.169v9.17h-9.169Zm0-9.17v-9.169h9.169v9.169h-9.169Zm18.338 0v-9.169h9.17v9.169h-9.17Zm-18.338-36.677v-9.169h9.169v9.169h-9.169Zm0 9.169v-9.169h9.169v9.169h-9.169Zm9.169 0v-9.169h9.169v9.169h-9.169Zm9.169 0v-9.169h9.17v9.169h-9.17Zm0 9.17v-9.17h9.17v9.17h-9.17Zm9.17 0v-9.17h9.169v9.17h-9.169Zm0 9.169v-9.169h9.169v9.169h-9.169Zm-9.17 0v-9.169h9.17v9.169h-9.17Zm-9.169 0v-9.169h9.169v9.169h-9.169Zm0-9.169v-9.17h9.169v9.17h-9.169Zm-9.169 0v-9.17h9.169v9.17h-9.169Zm-9.17 0v-9.17h9.17v9.17h-9.17Zm0 9.169v-9.169h9.17v9.169h-9.17Zm9.17 0v-9.169h9.169v9.169h-9.169Zm-9.17 9.169v-9.169h9.17v9.169h-9.17Zm-9.169-9.169v-9.169h9.169v9.169h-9.169Zm0-9.169v-9.17h9.169v9.17h-9.169Zm0-9.17v-9.169h9.169v9.169h-9.169Zm0-9.169v-9.169h9.169v9.169h-9.169Zm9.169 0v-9.169h9.17v9.169h-9.17Zm0 9.169v-9.169h9.17v9.169h-9.17Zm-18.338-9.169v-9.169h9.169v9.169h-9.169Zm0 9.169v-9.169h9.169v9.169h-9.169Zm-9.169 0v-9.169h9.169v9.169h-9.169Zm0 9.17v-9.17h9.169v9.17h-9.169Zm-9.17 0v-9.17h9.17v9.17h-9.17Zm0 9.169v-9.169h9.17v9.169h-9.17Zm9.17 0v-9.169h9.169v9.169h-9.169Zm9.169 0v-9.169h9.169v9.169h-9.169Zm0-9.169v-9.17h9.169v9.17h-9.169Zm-18.339 18.338v-9.169h9.17v9.169h-9.17Zm9.17 0v-9.169h9.169v9.169h-9.169Zm-9.17 9.17v-9.17h9.17v9.17h-9.17Zm-64.185-45.847v-9.169h9.17v9.169h-9.17Zm-9.169 9.169v-9.169h9.169v9.169h-9.169Zm82.524-9.169v-9.169h9.169v9.169h-9.169Zm-9.17 9.169v-9.169h9.17v9.169h-9.17Zm-55.015 18.339v-9.169h9.169v9.169h-9.169Zm27.507-27.508v-9.169h9.17v9.169h-9.17ZM746.98 762.552v-9.169h9.17v9.169h-9.17Zm9.17 0v-9.169h9.169v9.169h-9.169Zm9.169 0v-9.169h9.169v9.169h-9.169Zm9.169 0v-9.169h9.17v9.169h-9.17Zm9.17 0v-9.169h9.169v9.169h-9.169Zm0-9.169v-9.17h9.169v9.17h-9.169Zm0-9.17v-9.169h9.169v9.169h-9.169Zm-9.17 0v-9.169h9.17v9.169h-9.17Zm-9.169 0v-9.169h9.169v9.169h-9.169Zm-9.169 0v-9.169h9.169v9.169h-9.169Zm0 9.17v-9.17h9.169v9.17h-9.169Zm-9.17 0v-9.17h9.17v9.17h-9.17Zm18.339 0v-9.17h9.169v9.17h-9.169Zm9.169 0v-9.17h9.17v9.17h-9.17Zm-27.508-9.17v-9.169h9.17v9.169h-9.17Zm-9.169 0v-9.169h9.169v9.169h-9.169Zm0-9.169v-9.169h9.169v9.169h-9.169Zm9.169 0v-9.169h9.17v9.169h-9.17Zm9.17 0v-9.169h9.169v9.169h-9.169Zm9.169 0v-9.169h9.169v9.169h-9.169Zm9.169 0v-9.169h9.17v9.169h-9.17Zm0-9.169v-9.17h9.17v9.17h-9.17Zm-9.169 0v-9.17h9.169v9.17h-9.169Zm-9.169 0v-9.17h9.169v9.17h-9.169Zm-9.17 0v-9.17h9.17v9.17h-9.17Zm-9.169 0v-9.17h9.169v9.17h-9.169Zm18.339-9.17v-9.169h9.169v9.169h-9.169Zm9.169 0v-9.169h9.169v9.169h-9.169Zm-18.339 0v-9.169h9.17v9.169h-9.17Zm0-9.169v-9.169h9.17v9.169h-9.17Zm-9.169 0v-9.169h9.169v9.169h-9.169Zm0 9.169v-9.169h9.169v9.169h-9.169Zm-9.169 0v-9.169h9.169v9.169h-9.169Zm0-9.169v-9.169h9.169v9.169h-9.169Zm0 18.339v-9.17h9.169v9.17h-9.169Zm-9.169 0v-9.17h9.169v9.17h-9.169Zm0 9.169v-9.169h9.169v9.169h-9.169Zm9.169 0v-9.169h9.169v9.169h-9.169Zm-18.339 0v-9.169h9.17v9.169h-9.17Zm0-9.169v-9.17h9.17v9.17h-9.17Zm0-9.17v-9.169h9.17v9.169h-9.17Zm0-9.169v-9.169h9.17v9.169h-9.17Zm9.17 0v-9.169h9.169v9.169h-9.169Zm0 9.169v-9.169h9.169v9.169h-9.169Zm-18.339-9.169v-9.169h9.169v9.169h-9.169Zm-9.169 0v-9.169h9.169v9.169h-9.169Zm-9.17 0v-9.169h9.17v9.169h-9.17Zm0 9.169v-9.169h9.17v9.169h-9.17Zm0 9.17v-9.17h9.17v9.17h-9.17Zm0 9.169v-9.169h9.17v9.169h-9.17Zm9.17 0v-9.169h9.169v9.169h-9.169Zm9.169 0v-9.169h9.169v9.169h-9.169Zm0-9.169v-9.17h9.169v9.17h-9.169Zm0-9.17v-9.169h9.169v9.169h-9.169Zm-9.169 0v-9.169h9.169v9.169h-9.169Zm0 9.17v-9.17h9.169v9.17h-9.169Zm-18.339 0v-9.17h9.169v9.17h-9.169Zm0-9.17v-9.169h9.169v9.169h-9.169Zm-9.169 0v-9.169h9.169v9.169h-9.169Zm0 9.17v-9.17h9.169v9.17h-9.169Zm-9.169 0v-9.17h9.169v9.17h-9.169Zm0 9.169v-9.169h9.169v9.169h-9.169Zm0 9.169v-9.169h9.169v9.169h-9.169Zm9.169 0v-9.169h9.169v9.169h-9.169Zm0-9.169v-9.169h9.169v9.169h-9.169Zm9.169 0v-9.169h9.169v9.169h-9.169Zm0 9.169v-9.169h9.169v9.169h-9.169Zm9.169 0v-9.169h9.17v9.169h-9.17Zm9.17 0v-9.169h9.169v9.169h-9.169Zm-45.847 0v-9.169h9.17v9.169h-9.17Zm0 9.17v-9.17h9.17v9.17h-9.17Zm0 9.169v-9.169h9.17v9.169h-9.17Zm0 9.169v-9.169h9.17v9.169h-9.17Zm0 9.169v-9.169h9.17v9.169h-9.17Zm0 9.17v-9.17h9.17v9.17h-9.17Zm0 9.169v-9.169h9.17v9.169h-9.17Zm0 9.169v-9.169h9.17v9.169h-9.17Zm0 9.17v-9.17h9.17v9.17h-9.17Zm0 9.169v-9.169h9.17v9.169h-9.17Zm9.17 0v-9.169h9.169v9.169h-9.169Zm0 9.169v-9.169h9.169v9.169h-9.169Zm-9.17 0v-9.169h9.17v9.169h-9.17Zm18.339 0v-9.169h9.169v9.169h-9.169Zm9.169 0v-9.169h9.169v9.169h-9.169Zm9.169 0v-9.169h9.17v9.169h-9.17Zm9.17 0v-9.169h9.169v9.169h-9.169Zm-9.17-9.169v-9.169h9.17v9.169h-9.17Zm0-9.169v-9.17h9.17v9.17h-9.17Zm0-9.17v-9.169h9.17v9.169h-9.17Zm0-9.169v-9.169h9.17v9.169h-9.17Zm0-9.169v-9.17h9.17v9.17h-9.17Zm0-9.17v-9.169h9.17v9.169h-9.17Zm0-9.169v-9.169h9.17v9.169h-9.17Zm0-9.169v-9.169h9.17v9.169h-9.17Zm0-9.169v-9.17h9.17v9.17h-9.17Zm-9.169 0v-9.17h9.169v9.17h-9.169Zm-9.169 0v-9.17h9.169v9.17h-9.169Zm-9.169 0v-9.17h9.169v9.17h-9.169Zm0 9.169v-9.169h9.169v9.169h-9.169Zm0 9.169v-9.169h9.169v9.169h-9.169Zm0 9.169v-9.169h9.169v9.169h-9.169Zm0 9.17v-9.17h9.169v9.17h-9.169Zm0 9.169v-9.169h9.169v9.169h-9.169Zm0 9.169v-9.169h9.169v9.169h-9.169Zm0 9.17v-9.17h9.169v9.17h-9.169Zm9.169 9.169v-9.169h9.169v9.169h-9.169Zm9.169 0v-9.169h9.169v9.169h-9.169Zm0-9.169v-9.17h9.169v9.17h-9.169Zm0-9.17v-9.169h9.169v9.169h-9.169Zm0-9.169v-9.169h9.169v9.169h-9.169Zm0-9.169v-9.17h9.169v9.17h-9.169Zm-9.169 0v-9.17h9.169v9.17h-9.169Zm0-9.17v-9.169h9.169v9.169h-9.169Zm0-9.169v-9.169h9.169v9.169h-9.169Zm0-9.169v-9.169h9.169v9.169h-9.169Zm9.169 0v-9.169h9.169v9.169h-9.169Zm0 9.169v-9.169h9.169v9.169h-9.169Zm0 9.169v-9.169h9.169v9.169h-9.169Zm-9.169 27.508v-9.169h9.169v9.169h-9.169Zm0 9.17v-9.17h9.169v9.17h-9.169Zm0-18.339v-9.169h9.169v9.169h-9.169Zm82.523 27.508v-9.169h9.17v9.169h-9.17Zm9.17 0v-9.169h9.169v9.169h-9.169Zm9.169 0v-9.169h9.169v9.169h-9.169Zm9.169 0v-9.169h9.17v9.169h-9.17Zm9.17 0v-9.169h9.169v9.169h-9.169Zm0 9.169v-9.169h9.169v9.169h-9.169Zm-9.17 0v-9.169h9.17v9.169h-9.17Zm-9.169 0v-9.169h9.169v9.169h-9.169Zm-9.169 0v-9.169h9.169v9.169h-9.169Zm-9.17 0v-9.169h9.17v9.169h-9.17Zm-9.169 0v-9.169h9.169v9.169h-9.169Zm0 9.169v-9.169h9.169v9.169h-9.169Zm9.169 0v-9.169h9.17v9.169h-9.17Zm9.17 0v-9.169h9.169v9.169h-9.169Zm9.169 0v-9.169h9.169v9.169h-9.169Zm0 9.17v-9.17h9.169v9.17h-9.169Zm9.169 0v-9.17h9.17v9.17h-9.17Zm0-9.17v-9.169h9.17v9.169h-9.17Zm-9.169 18.339v-9.169h9.169v9.169h-9.169Zm-9.169 0v-9.169h9.169v9.169h-9.169Zm0-9.169v-9.17h9.169v9.17h-9.169Zm-9.17 0v-9.17h9.17v9.17h-9.17Zm0 9.169v-9.169h9.17v9.169h-9.17Zm0 9.169v-9.169h9.17v9.169h-9.17Zm-9.169 0v-9.169h9.169v9.169h-9.169Zm-9.169 0v-9.169h9.169v9.169h-9.169Zm-9.169 0v-9.169h9.169v9.169h-9.169Zm-9.17 0v-9.169h9.17v9.169h-9.17Zm-9.169 0v-9.169h9.169v9.169h-9.169Zm-9.169 0v-9.169h9.169v9.169h-9.169Zm-9.17 0v-9.169h9.17v9.169h-9.17Zm9.17-9.169v-9.169h9.169v9.169h-9.169Zm9.169 0v-9.169h9.169v9.169h-9.169Zm9.169 0v-9.169h9.17v9.169h-9.17Zm9.17 0v-9.169h9.169v9.169h-9.169Zm9.169 0v-9.169h9.169v9.169h-9.169Zm9.169 0v-9.169h9.169v9.169h-9.169Zm0-9.169v-9.17h9.169v9.17h-9.169Zm-9.169 0v-9.17h9.169v9.17h-9.169Zm-9.169 0v-9.17h9.169v9.17h-9.169Zm-9.17 0v-9.17h9.17v9.17h-9.17Zm-9.169 0v-9.17h9.169v9.17h-9.169Zm-9.169 0v-9.17h9.169v9.17h-9.169Zm-9.17 9.169v-9.169h9.17v9.169h-9.17Zm-9.169 0v-9.169h9.169v9.169h-9.169Zm-9.169 0v-9.169h9.169v9.169h-9.169Zm0-9.169v-9.17h9.169v9.17h-9.169Zm-9.169 0v-9.17h9.169v9.17h-9.169Zm0-9.17v-9.169h9.169v9.169h-9.169Zm9.169 0v-9.169h9.169v9.169h-9.169Zm9.169 0v-9.169h9.169v9.169h-9.169Zm9.169 0v-9.169h9.17v9.169h-9.17Zm9.17 0v-9.169h9.169v9.169h-9.169Zm9.169 0v-9.169h9.169v9.169h-9.169Zm9.169 0v-9.169h9.17v9.169h-9.17Zm9.17 0v-9.169h9.169v9.169h-9.169Zm9.169 0v-9.169h9.169v9.169h-9.169Zm-45.847 9.17v-9.17h9.17v9.17h-9.17Zm-9.169 0v-9.17h9.169v9.17h-9.169Zm110.032-82.524v-9.169h9.169v9.169h-9.169Zm-9.17 0v-9.169h9.17v9.169h-9.17Zm-9.169 0v-9.169h9.169v9.169h-9.169Zm-9.169 0v-9.169h9.169v9.169h-9.169Zm-9.17 0v-9.169h9.17v9.169h-9.17Zm36.678 9.169v-9.169h9.169v9.169h-9.169Zm-18.339 0v-9.169h9.169v9.169h-9.169Zm-9.169 0v-9.169h9.169v9.169h-9.169Zm-18.339 0v-9.169h9.169v9.169h-9.169Zm-9.169 0v-9.169h9.169v9.169h-9.169Zm-9.169 0v-9.169h9.169v9.169h-9.169Zm-9.17 0v-9.169h9.17v9.169h-9.17Zm-9.169 0v-9.169h9.169v9.169h-9.169Zm-9.169 0v-9.169h9.169v9.169h-9.169Zm55.015 0v-9.169h9.17v9.169h-9.17Zm27.508 0v-9.169h9.17v9.169h-9.17Zm9.17 9.17v-9.17h9.169v9.17h-9.169Zm-9.17 0v-9.17h9.17v9.17h-9.17Zm-9.169 0v-9.17h9.169v9.17h-9.169Zm-9.169 0v-9.17h9.169v9.17h-9.169Zm-9.17 0v-9.17h9.17v9.17h-9.17Zm-9.169 0v-9.17h9.169v9.17h-9.169Zm-9.169 0v-9.17h9.169v9.17h-9.169Zm-9.169 0v-9.17h9.169v9.17h-9.169Zm-9.17 0v-9.17h9.17v9.17h-9.17Zm-9.169 0v-9.17h9.169v9.17h-9.169Zm-9.169 0v-9.17h9.169v9.17h-9.169Zm0 9.169v-9.169h9.169v9.169h-9.169Zm9.169 0v-9.169h9.169v9.169h-9.169Zm9.169 0v-9.169h9.17v9.169h-9.17Zm18.339 0v-9.169h9.169v9.169h-9.169Zm9.169 0v-9.169h9.169v9.169h-9.169Zm9.169 0v-9.169h9.17v9.169h-9.17Zm9.17 0v-9.169h9.169v9.169h-9.169Zm9.169 0v-9.169h9.169v9.169h-9.169Zm9.169 0v-9.169h9.17v9.169h-9.17Zm9.17 0v-9.169h9.169v9.169h-9.169Zm-64.185 0v-9.169h9.169v9.169h-9.169Zm-155.878-64.185v-9.169h9.169v9.169h-9.169Zm0-9.169v-9.17h9.169v9.17h-9.169Zm0-9.17v-9.169h9.169v9.169h-9.169Zm-9.17 0v-9.169h9.17v9.169h-9.17Zm0-9.169v-9.169h9.17v9.169h-9.17Zm0 18.339v-9.17h9.17v9.17h-9.17Zm-9.169 0v-9.17h9.169v9.17h-9.169Zm0 9.169v-9.169h9.169v9.169h-9.169Zm9.169 0v-9.169h9.17v9.169h-9.17Zm-18.338 0v-9.169h9.169v9.169h-9.169Zm0-9.169v-9.17h9.169v9.17h-9.169Zm0-9.17v-9.169h9.169v9.169h-9.169Zm0-9.169v-9.169h9.169v9.169h-9.169Zm9.169 0v-9.169h9.169v9.169h-9.169Zm0 9.169v-9.169h9.169v9.169h-9.169Zm-18.338-9.169v-9.169h9.169v9.169h-9.169Zm-9.17 0v-9.169h9.17v9.169h-9.17Zm-9.169 0v-9.169h9.169v9.169h-9.169Zm0 9.169v-9.169h9.169v9.169h-9.169Zm0 9.17v-9.17h9.169v9.17h-9.169Zm0 9.169v-9.169h9.169v9.169h-9.169Zm9.169 0v-9.169h9.17v9.169h-9.17Zm9.17 0v-9.169h9.169v9.169h-9.169Zm0-9.169v-9.17h9.169v9.17h-9.169Zm0-9.17v-9.169h9.169v9.169h-9.169Zm-9.17 0v-9.169h9.17v9.169h-9.17Zm0 9.17v-9.17h9.17v9.17h-9.17Zm-18.338 0v-9.17h9.169v9.17h-9.169Zm0-9.17v-9.169h9.169v9.169h-9.169Zm-9.17 0v-9.169h9.17v9.169h-9.17Zm0 9.17v-9.17h9.17v9.17h-9.17Zm-9.169 0v-9.17h9.169v9.17h-9.169Zm0 9.169v-9.169h9.169v9.169h-9.169Zm0 9.169v-9.169h9.169v9.169h-9.169Zm9.169 0v-9.169h9.17v9.169h-9.17Zm0-9.169v-9.169h9.17v9.169h-9.17Zm9.17 0v-9.169h9.169v9.169h-9.169Zm0 9.169v-9.169h9.169v9.169h-9.169Zm9.169 0v-9.169h9.169v9.169h-9.169Zm9.169 0v-9.169h9.17v9.169h-9.17Zm-45.846 0v-9.169h9.169v9.169h-9.169Zm0 9.17v-9.17h9.169v9.17h-9.169Zm0 9.169v-9.169h9.169v9.169h-9.169Zm0 9.169v-9.169h9.169v9.169h-9.169Zm0 9.169v-9.169h9.169v9.169h-9.169Zm0 9.17v-9.17h9.169v9.17h-9.169Zm0 9.169v-9.169h9.169v9.169h-9.169Zm0 9.169v-9.169h9.169v9.169h-9.169Zm0 9.17v-9.17h9.169v9.17h-9.169Zm0 9.169v-9.169h9.169v9.169h-9.169Zm9.169 0v-9.169h9.169v9.169h-9.169Zm0 9.169v-9.169h9.169v9.169h-9.169Zm-9.169 0v-9.169h9.169v9.169h-9.169Zm18.338 0v-9.169h9.17v9.169h-9.17Zm9.17 0v-9.169h9.169v9.169h-9.169Zm9.169 0v-9.169h9.169v9.169h-9.169Zm9.169 0v-9.169h9.17v9.169h-9.17Zm-9.169-9.169v-9.169h9.169v9.169h-9.169Zm0-9.169v-9.17h9.169v9.17h-9.169Zm0-9.17v-9.169h9.169v9.169h-9.169Zm0-9.169v-9.169h9.169v9.169h-9.169Zm0-9.169v-9.17h9.169v9.17h-9.169Zm0-9.17v-9.169h9.169v9.169h-9.169Zm0-9.169v-9.169h9.169v9.169h-9.169Zm0-9.169v-9.169h9.169v9.169h-9.169Zm0-9.169v-9.17h9.169v9.17h-9.169Zm-9.169 0v-9.17h9.169v9.17h-9.169Zm-9.17 0v-9.17h9.17v9.17h-9.17Zm-9.169 0v-9.17h9.169v9.17h-9.169Zm0 9.169v-9.169h9.169v9.169h-9.169Zm0 9.169v-9.169h9.169v9.169h-9.169Zm0 9.169v-9.169h9.169v9.169h-9.169Zm0 9.17v-9.17h9.169v9.17h-9.169Zm0 9.169v-9.169h9.169v9.169h-9.169Zm0 9.169v-9.169h9.169v9.169h-9.169Zm0 9.17v-9.17h9.169v9.17h-9.169Zm9.169 9.169v-9.169h9.17v9.169h-9.17Zm9.17 0v-9.169h9.169v9.169h-9.169Zm0-9.169v-9.17h9.169v9.17h-9.169Zm0-9.17v-9.169h9.169v9.169h-9.169Zm0-9.169v-9.169h9.169v9.169h-9.169Zm0-9.169v-9.17h9.169v9.17h-9.169Zm-9.17 0v-9.17h9.17v9.17h-9.17Zm0-9.17v-9.169h9.17v9.169h-9.17Zm0-9.169v-9.169h9.17v9.169h-9.17Zm0-9.169v-9.169h9.17v9.169h-9.17Zm9.17 0v-9.169h9.169v9.169h-9.169Zm0 9.169v-9.169h9.169v9.169h-9.169Zm0 9.169v-9.169h9.169v9.169h-9.169Zm-9.17 27.508v-9.169h9.17v9.169h-9.17Zm0 9.17v-9.17h9.17v9.17h-9.17Zm0-18.339v-9.169h9.17v9.169h-9.17Zm73.355 45.846v-9.169h9.169v9.169h-9.169Zm-9.17 27.508v-9.169h9.17v9.169h-9.17Zm-9.169 0v-9.169h9.169v9.169h-9.169Zm-9.169 0v-9.169h9.169v9.169h-9.169Zm-9.169 0v-9.169h9.169v9.169h-9.169Zm-9.17 0v-9.169h9.17v9.169h-9.17Zm-9.169 0v-9.169h9.169v9.169h-9.169Zm9.169-9.169v-9.169h9.17v9.169h-9.17Zm9.17 0v-9.169h9.169v9.169h-9.169Zm9.169 0v-9.169h9.169v9.169h-9.169Zm9.169 0v-9.169h9.169v9.169h-9.169Zm9.169 0v-9.169h9.17v9.169h-9.17Zm9.17 0v-9.169h9.169v9.169h-9.169Zm0-9.169v-9.17h9.169v9.17h-9.169Zm-9.17 0v-9.17h9.17v9.17h-9.17Zm-9.169 0v-9.17h9.169v9.17h-9.169Zm-9.169 0v-9.17h9.169v9.17h-9.169Zm-9.169 0v-9.17h9.169v9.17h-9.169Zm-9.17 0v-9.17h9.17v9.17h-9.17Zm-9.169 9.169v-9.169h9.169v9.169h-9.169Zm-9.169 0v-9.169h9.169v9.169h-9.169Zm-9.17 0v-9.169h9.17v9.169h-9.17Zm0-9.169v-9.17h9.17v9.17h-9.17Zm-9.169 0v-9.17h9.169v9.17h-9.169Zm0-9.17v-9.169h9.169v9.169h-9.169Zm9.169 0v-9.169h9.17v9.169h-9.17Zm9.17 0v-9.169h9.169v9.169h-9.169Zm9.169 0v-9.169h9.169v9.169h-9.169Zm9.169 0v-9.169h9.17v9.169h-9.17Zm9.17 0v-9.169h9.169v9.169h-9.169Zm9.169 0v-9.169h9.169v9.169h-9.169Zm9.169 0v-9.169h9.169v9.169h-9.169Zm9.169 0v-9.169h9.17v9.169h-9.17Zm-45.846 9.17v-9.17h9.169v9.17h-9.169Zm-9.169 0v-9.17h9.169v9.17h-9.169Zm73.354 0v-9.17h9.169v9.17h-9.169Zm0-9.17v-9.169h9.169v9.169h-9.169Zm0-9.169v-9.169h9.169v9.169h-9.169Zm0-9.169v-9.169h9.169v9.169h-9.169Zm0-9.169v-9.17h9.169v9.17h-9.169Zm0-9.17v-9.169h9.169v9.169h-9.169Zm0-9.169v-9.169h9.169v9.169h-9.169Zm0-9.169v-9.17h9.169v9.17h-9.169Zm0-9.17v-9.169h9.169v9.169h-9.169Zm0-9.169v-9.169h9.169v9.169h-9.169Zm0-9.169v-9.169h9.169v9.169h-9.169Zm0-9.169v-9.17h9.169v9.17h-9.169Zm0-9.17v-9.169h9.169v9.169h-9.169Zm9.169 0v-9.169h9.17v9.169h-9.17Zm0 9.17v-9.17h9.17v9.17h-9.17Zm0 9.169v-9.169h9.17v9.169h-9.17Zm0 9.169v-9.169h9.17v9.169h-9.17Zm0 9.169v-9.169h9.17v9.169h-9.17Zm0 9.17v-9.17h9.17v9.17h-9.17Zm0 9.169v-9.169h9.17v9.169h-9.17Zm9.17 9.169v-9.169h9.169v9.169h-9.169Zm0 9.17v-9.17h9.169v9.17h-9.169Zm0 9.169v-9.169h9.169v9.169h-9.169Zm0 9.169v-9.169h9.169v9.169h-9.169Zm0 9.169v-9.169h9.169v9.169h-9.169Zm0 9.17v-9.17h9.169v9.17h-9.169Zm0 9.169v-9.169h9.169v9.169h-9.169Zm0 9.169v-9.169h9.169v9.169h-9.169Zm9.169 0v-9.169h9.169v9.169h-9.169Zm9.169 0v-9.169h9.169v9.169h-9.169Zm0-9.169v-9.169h9.169v9.169h-9.169Zm0-9.169v-9.17h9.169v9.17h-9.169Zm0-9.17v-9.169h9.169v9.169h-9.169Zm0-9.169v-9.169h9.169v9.169h-9.169Zm0-9.169v-9.169h9.169v9.169h-9.169Zm0-9.169v-9.17h9.169v9.17h-9.169Zm0-9.17v-9.169h9.169v9.169h-9.169Zm-9.169 0v-9.169h9.169v9.169h-9.169Zm0-9.169v-9.169h9.169v9.169h-9.169Zm0 18.339v-9.17h9.169v9.17h-9.169Zm0 9.169v-9.169h9.169v9.169h-9.169Zm0 9.169v-9.169h9.169v9.169h-9.169Zm0 9.169v-9.169h9.169v9.169h-9.169Zm0 9.17v-9.17h9.169v9.17h-9.169Zm0 9.169v-9.169h9.169v9.169h-9.169Zm-18.339-9.169v-9.17h9.17v9.17h-9.17Zm0-9.17v-9.169h9.17v9.169h-9.17Zm0-9.169v-9.169h9.17v9.169h-9.17Zm0-9.169v-9.169h9.17v9.169h-9.17Zm0-9.169v-9.17h9.17v9.17h-9.17Zm0-9.17v-9.169h9.17v9.169h-9.17Zm-9.169-155.877v-9.17h9.169v9.17h-9.169Zm0 9.169v-9.169h9.169v9.169h-9.169Zm0 9.169v-9.169h9.169v9.169h-9.169Zm0 9.169v-9.169h9.169v9.169h-9.169Zm0 9.17v-9.17h9.169v9.17h-9.169Zm0 9.169v-9.169h9.169v9.169h-9.169Zm0 18.338v-9.169h9.169v9.169h-9.169Zm0 18.339v-9.169h9.169v9.169h-9.169Zm27.508-82.523v-9.17h9.169v9.17h-9.169Zm0 9.169v-9.169h9.169v9.169h-9.169Zm0 9.169v-9.169h9.169v9.169h-9.169Zm0 9.169v-9.169h9.169v9.169h-9.169Zm0 9.17v-9.17h9.169v9.17h-9.169Zm0 9.169v-9.169h9.169v9.169h-9.169Zm0 18.338v-9.169h9.169v9.169h-9.169Zm0 9.17v-9.17h9.169v9.17h-9.169Zm0 9.169v-9.169h9.169v9.169h-9.169Zm0 18.339v-9.17h9.169v9.17h-9.169Zm0 9.169v-9.169h9.169v9.169h-9.169Zm0 9.169v-9.169h9.169v9.169h-9.169Zm9.169 9.169v-9.169h9.169v9.169h-9.169Zm0 9.17v-9.17h9.169v9.17h-9.169Zm0 9.169v-9.169h9.169v9.169h-9.169Zm0-27.508v-9.169h9.169v9.169h-9.169Zm0-9.169v-9.169h9.169v9.169h-9.169Zm0-18.339v-9.169h9.169v9.169h-9.169Zm0-9.169v-9.169h9.169v9.169h-9.169Zm0-9.169v-9.17h9.169v9.17h-9.169Zm0-9.17v-9.169h9.169v9.169h-9.169Zm0-9.169v-9.169h9.169v9.169h-9.169Zm0-9.169v-9.169h9.169v9.169h-9.169Zm0-9.169v-9.17h9.169v9.17h-9.169Zm-9.169 18.338v-9.169h9.169v9.169h-9.169Zm9.169-27.508v-9.169h9.169v9.169h-9.169Zm0-9.169v-9.169h9.169v9.169h-9.169Zm0-9.169v-9.169h9.169v9.169h-9.169Zm0-9.169v-9.17h9.169v9.17h-9.169Zm-18.338 0v-9.17h9.169v9.17h-9.169Zm-9.17 0v-9.17h9.17v9.17h-9.17Zm0 9.169v-9.169h9.17v9.169h-9.17Zm9.17 0v-9.169h9.169v9.169h-9.169Zm0 9.169v-9.169h9.169v9.169h-9.169Zm0 9.169v-9.169h9.169v9.169h-9.169Zm0 9.17v-9.17h9.169v9.17h-9.169Zm0 9.169v-9.169h9.169v9.169h-9.169Zm0 9.169v-9.169h9.169v9.169h-9.169Zm0 9.169v-9.169h9.169v9.169h-9.169Zm-9.17 9.17v-9.17h9.17v9.17h-9.17Zm0 9.169v-9.169h9.17v9.169h-9.17Zm0-18.339v-9.169h9.17v9.169h-9.17Zm0-9.169v-9.169h9.17v9.169h-9.17Zm0-9.169v-9.169h9.17v9.169h-9.17Zm0-9.169v-9.17h9.17v9.17h-9.17Zm0-9.17v-9.169h9.17v9.169h-9.17Zm0-9.169v-9.169h9.17v9.169h-9.17Zm9.17 64.185v-9.169h9.169v9.169h-9.169Zm0 18.339v-9.17h9.169v9.17h-9.169Zm0 9.169v-9.169h9.169v9.169h-9.169Zm0 9.169v-9.169h9.169v9.169h-9.169Zm0 9.169v-9.169h9.169v9.169h-9.169Zm0 9.17v-9.17h9.169v9.17h-9.169Zm0 9.169v-9.169h9.169v9.169h-9.169Zm9.169-9.169v-9.17h9.169v9.17h-9.169Zm0-9.17v-9.169h9.169v9.169h-9.169Zm-27.508-73.354v-9.169h9.169v9.169h-9.169Zm36.677 45.847v-9.17h9.169v9.17h-9.169Zm-36.677-27.508v-9.17h9.169v9.17h-9.169Zm18.339 0v-9.17h9.169v9.17h-9.169Zm0 18.338v-9.169h9.169v9.169h-9.169Zm9.169 0v-9.169h9.169v9.169h-9.169Zm-27.508 119.201v-9.169h9.169v9.169h-9.169Zm9.169 0v-9.169h9.17v9.169h-9.17Zm0 9.169v-9.169h9.17v9.169h-9.17Zm-18.338-165.047v-9.169h9.169v9.169h-9.169Zm0 128.37v-9.169h9.169v9.169h-9.169Zm9.169 36.677v-9.169h9.169v9.169h-9.169Z"/>
</svg>
